<?xml version="1.0" standalone="no"?>
<!DOCTYPE svg PUBLIC "-//W3C//DTD SVG 1.1//EN" "http://www.w3.org/Graphics/SVG/1.1/DTD/svg11.dtd" >
<svg xmlns="http://www.w3.org/2000/svg">
<metadata>Generated by IcoMoon</metadata>
<defs>
<font id="fzicon" horiz-adv-x="1024">
<font-face units-per-em="1024" ascent="960" descent="-64" />
<missing-glyph horiz-adv-x="1024" />
<glyph unicode="&#x20;" horiz-adv-x="512" d="" />
<glyph unicode="&#xe900;" glyph-name="tonggao-01" d="M960 473.6h-96c-19.2 0-32-12.8-32-32s12.8-32 32-32h96c19.2 0 32 12.8 32 32s-16 32-32 32zM825.6 716.8c6.4 0 9.6 0 16 3.2l83.2 48c16 9.6 19.2 28.8 12.8 44.8-9.6 16-28.8 19.2-44.8 12.8l-83.2-48c-16-9.6-19.2-28.8-12.8-44.8 6.4-9.6 19.2-16 28.8-16zM921.6 112l-83.2 48c-16 9.6-35.2 3.2-44.8-12.8s-3.2-35.2 12.8-44.8l83.2-48c6.4-3.2 9.6-3.2 16-3.2 9.6 0 22.4 6.4 28.8 16 6.4 19.2 3.2 38.4-12.8 44.8zM256 713.6h-102.4c-54.4 0-96-41.6-96-96v-352c0-54.4 41.6-96 96-96h102.4v544zM649.6 627.2v137.6c0 35.2-19.2 67.2-48 83.2s-67.2 16-96 0l-198.4-115.2v-582.4l198.4-112c16-9.6 32-12.8 48-12.8s32 3.2 48 12.8c28.8 16 48 48 48 83.2v134.4c83.2 22.4 144 99.2 144 185.6 0 89.6-57.6 166.4-144 185.6z" />
<glyph unicode="&#xe901;" glyph-name="tonggao" d="M800 448c0 86.4-60.8 163.2-144 185.6v169.6c0 35.2-19.2 67.2-48 83.2s-67.2 16-96 0l-233.6-134.4h-118.4c-54.4 0-96-41.6-96-96v-416c0-54.4 41.6-96 96-96h118.4l233.6-134.4c16-9.6 32-12.8 48-12.8s32 3.2 48 12.8c28.8 16 48 48 48 83.2v169.6c83.2 22.4 144 99.2 144 185.6zM128 240v416c0 19.2 12.8 32 32 32h96v-480h-96c-19.2 0-32 12.8-32 32zM592 92.8c0-16-9.6-25.6-16-28.8s-16-9.6-32 0l-224 128v508.8l224 128c16 9.6 25.6 3.2 32 0 3.2-3.2 16-9.6 16-28.8v-707.2zM656 329.6v236.8c48-19.2 80-64 80-118.4s-32-99.2-80-118.4zM966.4 480h-96c-19.2 0-32-12.8-32-32s12.8-32 32-32h96c19.2 0 32 12.8 32 32s-16 32-32 32zM832 723.2c6.4 0 9.6 0 16 3.2l83.2 48c16 9.6 19.2 28.8 12.8 44.8-9.6 16-28.8 19.2-44.8 12.8l-83.2-48c-16-9.6-19.2-28.8-12.8-44.8 6.4-9.6 16-16 28.8-16zM924.8 118.4l-83.2 48c-16 9.6-35.2 3.2-44.8-12.8s-3.2-35.2 12.8-44.8l83.2-48c6.4-3.2 9.6-3.2 16-3.2 9.6 0 22.4 6.4 28.8 16 9.6 16 3.2 35.2-12.8 44.8z" />
<glyph unicode="&#xe902;" glyph-name="xiaoxi-01" d="M873.6 857.6h-736c-54.4 0-96-41.6-96-96v-544c0-54.4 41.6-96 96-96h64v-128c0-12.8 6.4-22.4 19.2-28.8 3.2-3.2 9.6-3.2 12.8-3.2 6.4 0 16 3.2 19.2 6.4l182.4 153.6h435.2c54.4 0 96 41.6 96 96v544c3.2 54.4-38.4 96-92.8 96zM297.6 441.6c-35.2 0-64 28.8-64 64s28.8 64 64 64 64-28.8 64-64-28.8-64-64-64zM505.6 441.6c-35.2 0-64 28.8-64 64s28.8 64 64 64 64-28.8 64-64-28.8-64-64-64zM713.6 441.6c-35.2 0-64 28.8-64 64s28.8 64 64 64 64-28.8 64-64-28.8-64-64-64z" />
<glyph unicode="&#xe903;" glyph-name="xiaoxi" d="M880 864h-736c-54.4 0-96-41.6-96-96v-544c0-54.4 41.6-96 96-96h64v-128c0-12.8 6.4-22.4 19.2-28.8 3.2-3.2 9.6-3.2 12.8-3.2 6.4 0 16 3.2 19.2 6.4l182.4 153.6h435.2c54.4 0 96 41.6 96 96v544c3.2 54.4-38.4 96-92.8 96zM912 224c0-19.2-12.8-32-32-32h-448c-6.4 0-16-3.2-19.2-6.4l-140.8-115.2v89.6c0 19.2-12.8 32-32 32h-96c-19.2 0-32 12.8-32 32v544c0 19.2 12.8 32 32 32h736c19.2 0 32-12.8 32-32v-544zM368 512c0-35.346-28.654-64-64-64s-64 28.654-64 64c0 35.346 28.654 64 64 64s64-28.654 64-64zM576 512c0-35.346-28.654-64-64-64s-64 28.654-64 64c0 35.346 28.654 64 64 64s64-28.654 64-64zM784 512c0-35.346-28.654-64-64-64s-64 28.654-64 64c0 35.346 28.654 64 64 64s64-28.654 64-64z" />
<glyph unicode="&#xe904;" glyph-name="tousjy-01" d="M697.6 880c22.4 0 38.4-16 38.4-38.4v-64c0-22.4-16-38.4-38.4-38.4s-38.4 16-38.4 38.4v64c0 22.4 19.2 38.4 38.4 38.4zM505.6 880c22.4 0 38.4-16 38.4-38.4v-64c0-22.4-16-38.4-38.4-38.4s-38.4 16-38.4 38.4v64c0 22.4 19.2 38.4 38.4 38.4zM313.6 880c22.4 0 38.4-16 38.4-38.4v-64c0-22.4-16-38.4-38.4-38.4s-38.4 19.2-38.4 41.6v64c0 19.2 19.2 35.2 38.4 35.2zM857.6 841.6h-89.6v-64c0-38.4-32-70.4-70.4-70.4s-70.4 32-70.4 70.4v64h-51.2v-64c0-38.4-32-70.4-70.4-70.4s-70.4 32-70.4 70.4v64h-51.2v-64c0-38.4-32-70.4-70.4-70.4s-70.4 32-70.4 70.4v64h-89.6c-54.4 0-96-41.6-96-96v-640c0-54.4 41.6-96 96-96h704c54.4 0 96 41.6 96 96v640c0 54.4-41.6 96-96 96zM352 217.6c-9.6-3.2-19.2 6.4-16 16l28.8 105.6 96-96-108.8-25.6zM716.8 505.6l-236.8-236.8-96 96 236.8 236.8c9.6 9.6 22.4 9.6 32 0l64-64c9.6-9.6 9.6-22.4 0-32z" />
<glyph unicode="&#xe905;" glyph-name="tousjy" d="M358.4 224c-9.6-3.2-19.2 6.4-16 16l28.8 105.6 96-96-108.8-25.6zM723.2 508.8l-236.8-236.8-96 96 236.8 236.8c9.6 9.6 22.4 9.6 32 0l64-64c6.4-6.4 6.4-22.4 0-32zM672 745.6c-22.4 0-38.4 16-38.4 38.4v64c0 22.4 16 38.4 38.4 38.4s38.4-16 38.4-38.4v-64c0-19.2-16-38.4-38.4-38.4zM512 745.6c-22.4 0-38.4 16-38.4 38.4v64c0 22.4 16 38.4 38.4 38.4s38.4-16 38.4-38.4v-64c0-19.2-16-38.4-38.4-38.4zM352 745.6c-22.4 0-38.4 16-38.4 38.4v64c0 22.4 16 38.4 38.4 38.4s38.4-16 38.4-38.4v-64c0-19.2-16-38.4-38.4-38.4zM864 16h-704c-54.4 0-96 41.6-96 96v640c0 54.4 41.6 96 96 96h96c19.2 0 32-12.8 32-32s-12.8-32-32-32h-96c-19.2 0-32-12.8-32-32v-640c0-19.2 12.8-32 32-32h704c19.2 0 32 12.8 32 32v640c0 19.2-12.8 32-32 32h-96c-19.2 0-32 12.8-32 32s12.8 32 32 32h96c54.4 0 96-41.6 96-96v-640c0-54.4-41.6-96-96-96z" />
<glyph unicode="&#xe906;" glyph-name="shencha-01" d="M601.6 899.2c22.4 0 41.6-19.2 41.6-41.6s-19.2-41.6-41.6-41.6h-192c-22.4 0-41.6 19.2-41.6 41.6s19.2 41.6 41.6 41.6h192zM825.6 857.6h-150.4c0 0 0 0 0 0 0-41.6-32-73.6-73.6-73.6h-192c-41.6 0-73.6 32-73.6 73.6 0 0 0 0 0 0h-150.4c-54.4 0-96-41.6-96-96v-672c0-54.4 41.6-96 96-96h640c54.4 0 96 41.6 96 96v672c0 54.4-41.6 96-96 96zM259.2 534.4c12.8 9.6 28.8 9.6 38.4 0l38.4-38.4 118.4 118.4c9.6 9.6 25.6 9.6 35.2 0s9.6-25.6 0-35.2l-137.6-137.6c-6.4-6.4-12.8-6.4-19.2-6.4s-12.8 3.2-19.2 6.4l-57.6 57.6c-6.4 6.4-6.4 22.4 3.2 35.2zM489.6 339.2l-137.6-134.4c-6.4-6.4-12.8-6.4-19.2-6.4s-12.8 3.2-19.2 6.4l-57.6 57.6c-9.6 9.6-9.6 25.6 0 35.2s25.6 9.6 35.2 0l38.4-38.4 118.4 118.4c9.6 9.6 25.6 9.6 35.2 0 16-12.8 16-28.8 6.4-38.4zM716.8 262.4h-115.2c-12.8 0-25.6 12.8-25.6 25.6s12.8 25.6 25.6 25.6h115.2c12.8 0 25.6-12.8 25.6-25.6s-9.6-25.6-25.6-25.6zM716.8 499.2h-115.2c-12.8 0-25.6 12.8-25.6 25.6s12.8 25.6 25.6 25.6h115.2c12.8 0 25.6-12.8 25.6-25.6s-9.6-25.6-25.6-25.6z" />
<glyph unicode="&#xe907;" glyph-name="shencha" d="M416 822.4h192c22.4 0 41.6 19.2 41.6 41.6s-19.2 41.6-41.6 41.6h-192c-22.4 0-41.6-19.2-41.6-41.6s19.2-41.6 41.6-41.6zM864 896h-96c-19.2 0-32-12.8-32-32s12.8-32 32-32h96c19.2 0 32-12.8 32-32v-704c0-19.2-12.8-32-32-32h-704c-19.2 0-32 12.8-32 32v704c0 19.2 12.8 32 32 32h96c19.2 0 32 12.8 32 32s-12.8 32-32 32h-96c-54.4 0-96-41.6-96-96v-704c0-54.4 41.6-96 96-96h704c54.4 0 96 41.6 96 96v704c0 54.4-41.6 96-96 96zM723.2 556.8h-115.2c-12.8 0-25.6-12.8-25.6-25.6s12.8-25.6 25.6-25.6h115.2c12.8 0 25.6 12.8 25.6 25.6s-9.6 25.6-25.6 25.6zM265.6 537.6c-9.6-9.6-9.6-25.6 0-35.2l57.6-57.6c6.4-6.4 12.8-6.4 19.2-6.4s12.8 3.2 19.2 6.4l134.4 134.4c9.6 9.6 9.6 25.6 0 35.2s-25.6 9.6-35.2 0l-118.4-118.4-38.4 38.4c-12.8 12.8-28.8 12.8-38.4 3.2zM723.2 320h-115.2c-12.8 0-25.6-12.8-25.6-25.6s12.8-25.6 25.6-25.6h115.2c12.8 0 25.6 12.8 25.6 25.6s-9.6 25.6-25.6 25.6zM457.6 380.8l-118.4-118.4-38.4 38.4c-9.6 9.6-25.6 9.6-35.2 0s-9.6-25.6 0-35.2l57.6-57.6c6.4-6.4 12.8-6.4 19.2-6.4s12.8 3.2 19.2 6.4l134.4 134.4c9.6 9.6 9.6 25.6 0 35.2-12.8 12.8-28.8 12.8-38.4 3.2z" />
<glyph unicode="&#xe908;" glyph-name="xunchajl-01" d="M601.6 899.2c22.4 0 41.6-19.2 41.6-41.6s-19.2-41.6-41.6-41.6h-192c-22.4 0-41.6 19.2-41.6 41.6s19.2 41.6 41.6 41.6h192zM291.2 332.8h166.4v-163.2h-166.4v163.2zM825.6 857.6h-150.4c0 0 0 0 0 0 0-41.6-32-73.6-73.6-73.6h-192c-41.6 0-73.6 32-73.6 73.6 0 0 0 0 0 0h-150.4c-54.4 0-96-41.6-96-96v-672c0-54.4 41.6-96 96-96h640c54.4 0 96 41.6 96 96v672c0 54.4-41.6 96-96 96zM483.2 156.8c0-6.4-6.4-12.8-12.8-12.8h-192c-6.4 0-12.8 6.4-12.8 12.8v188.8c0 6.4 6.4 12.8 12.8 12.8h192c6.4 0 12.8-6.4 12.8-12.8v-188.8zM483.2 444.8c0-6.4-6.4-12.8-12.8-12.8h-192c-6.4 0-12.8 6.4-12.8 12.8v188.8c0 6.4 6.4 12.8 12.8 12.8h99.2c6.4 0 12.8-6.4 12.8-12.8s-6.4-12.8-12.8-12.8h-86.4v-163.2h166.4v35.2c0 6.4 6.4 12.8 12.8 12.8s12.8-6.4 12.8-12.8v-48zM534.4 624l-134.4-115.2c-3.2-3.2-9.6-6.4-16-6.4 0 0-3.2 0-3.2 0-6.4 0-12.8 3.2-19.2 9.6l-25.6 35.2c-9.6 12.8-6.4 28.8 6.4 35.2 12.8 9.6 28.8 6.4 35.2-6.4l9.6-12.8 112 96c12.8 12.8 28.8 9.6 38.4 0s9.6-28.8-3.2-35.2zM745.6 220.8h-115.2c-12.8 0-25.6 12.8-25.6 25.6s12.8 25.6 25.6 25.6h115.2c12.8 0 25.6-12.8 25.6-25.6s-9.6-25.6-25.6-25.6zM745.6 508.8h-115.2c-12.8 0-25.6 12.8-25.6 25.6s12.8 25.6 25.6 25.6h115.2c12.8 0 25.6-12.8 25.6-25.6s-9.6-25.6-25.6-25.6z" />
<glyph unicode="&#xe909;" glyph-name="xunchajl" d="M416 822.4h192c22.4 0 41.6 19.2 41.6 41.6s-19.2 41.6-41.6 41.6h-192c-22.4 0-41.6-19.2-41.6-41.6s19.2-41.6 41.6-41.6zM864 896h-96c-19.2 0-32-12.8-32-32s12.8-32 32-32h96c19.2 0 32-12.8 32-32v-704c0-19.2-12.8-32-32-32h-704c-19.2 0-32 12.8-32 32v704c0 19.2 12.8 32 32 32h96c19.2 0 32 12.8 32 32s-12.8 32-32 32h-96c-54.4 0-96-41.6-96-96v-704c0-54.4 41.6-96 96-96h704c54.4 0 96 41.6 96 96v704c0 54.4-41.6 96-96 96zM470.4 358.4h-192c-6.4 0-12.8-6.4-12.8-12.8v-188.8c0-6.4 6.4-12.8 12.8-12.8h192c6.4 0 12.8 6.4 12.8 12.8v188.8c0 6.4-6.4 12.8-12.8 12.8zM457.6 169.6h-166.4v163.2h166.4v-163.2zM745.6 272h-115.2c-12.8 0-25.6-12.8-25.6-25.6s12.8-25.6 25.6-25.6h115.2c12.8 0 25.6 12.8 25.6 25.6s-9.6 25.6-25.6 25.6zM483.2 492.8c0 6.4-6.4 12.8-12.8 12.8s-12.8-6.4-12.8-12.8v-35.2h-166.4v163.2h86.4c6.4 0 12.8 6.4 12.8 12.8s-6.4 12.8-12.8 12.8h-99.2c-6.4 0-12.8-6.4-12.8-12.8v-188.8c0-6.4 6.4-12.8 12.8-12.8h192c6.4 0 12.8 6.4 12.8 12.8v48zM537.6 659.2c-9.6 9.6-25.6 12.8-35.2 3.2l-112-96-9.6 12.8c-9.6 12.8-25.6 12.8-35.2 6.4-12.8-9.6-12.8-25.6-6.4-35.2l25.6-35.2c3.2-6.4 9.6-9.6 19.2-9.6 0 0 3.2 0 3.2 0 6.4 0 12.8 3.2 16 6.4l134.4 115.2c9.6 3.2 9.6 22.4 0 32zM745.6 560h-115.2c-12.8 0-25.6-12.8-25.6-25.6s12.8-25.6 25.6-25.6h115.2c12.8 0 25.6 12.8 25.6 25.6s-9.6 25.6-25.6 25.6z" />
<glyph unicode="&#xe90a;" glyph-name="zhangdan-01" d="M601.6 899.2c22.4 0 41.6-19.2 41.6-41.6s-19.2-41.6-41.6-41.6h-192c-22.4 0-41.6 19.2-41.6 41.6s19.2 41.6 41.6 41.6h192zM825.6 857.6h-150.4c0 0 0 0 0 0 0-41.6-32-73.6-73.6-73.6h-192c-41.6 0-73.6 32-73.6 73.6 0 0 0 0 0 0h-150.4c-54.4 0-96-41.6-96-96v-672c0-54.4 41.6-96 96-96h640c54.4 0 96 41.6 96 96v672c0 54.4-41.6 96-96 96zM668.8 371.2c12.8 0 25.6-12.8 25.6-25.6s-12.8-25.6-25.6-25.6h-134.4v-102.4c0-12.8-12.8-25.6-25.6-25.6s-28.8 12.8-28.8 25.6v102.4h-134.4c-12.8 0-25.6 12.8-25.6 25.6s12.8 25.6 25.6 25.6h134.4v80h-134.4c-12.8 0-25.6 12.8-25.6 25.6s12.8 25.6 25.6 25.6h92.8l-48 99.2c-6.4 12.8 0 28.8 12.8 35.2s28.8 0 35.2-12.8l60.8-121.6h25.6l60.8 121.6c6.4 12.8 22.4 19.2 35.2 12.8s19.2-22.4 12.8-35.2l-57.6-99.2h89.6c12.8 0 25.6-12.8 25.6-25.6s-12.8-25.6-25.6-25.6h-134.4v-80h137.6z" />
<glyph unicode="&#xe90b;" glyph-name="zhangdan" d="M416 822.4h192c22.4 0 41.6 19.2 41.6 41.6s-19.2 41.6-41.6 41.6h-192c-22.4 0-41.6-19.2-41.6-41.6s19.2-41.6 41.6-41.6zM864 896h-96c-19.2 0-32-12.8-32-32s12.8-32 32-32h96c19.2 0 32-12.8 32-32v-704c0-19.2-12.8-32-32-32h-704c-19.2 0-32 12.8-32 32v704c0 19.2 12.8 32 32 32h96c19.2 0 32 12.8 32 32s-12.8 32-32 32h-96c-54.4 0-96-41.6-96-96v-704c0-54.4 41.6-96 96-96h704c54.4 0 96 41.6 96 96v704c0 54.4-41.6 96-96 96zM348.8 377.6c-12.8 0-25.6-12.8-25.6-25.6s12.8-25.6 25.6-25.6h134.4v-102.4c0-12.8 12.8-25.6 25.6-25.6s25.6 12.8 25.6 25.6v102.4h137.6c12.8 0 25.6 12.8 25.6 25.6s-12.8 25.6-25.6 25.6h-134.4v80h134.4c12.8 0 25.6 12.8 25.6 25.6s-12.8 25.6-25.6 25.6h-89.6l48 99.2c6.4 12.8 0 28.8-12.8 35.2s-28.8 0-35.2-12.8l-60.8-121.6h-25.6l-60.8 121.6c-6.4 12.8-22.4 19.2-35.2 12.8s-19.2-22.4-12.8-35.2l48-99.2h-92.8c-12.8 0-25.6-12.8-25.6-25.6s12.8-25.6 25.6-25.6h134.4v-80h-128z" />
<glyph unicode="&#xe90c;" glyph-name="weixiu-01" d="M684.8 505.6c67.2-19.2 137.6 0 185.6 48 54.4 54.4 70.4 140.8 38.4 214.4-3.2 3.2-6.4 9.6-12.8 9.6s-9.6 0-12.8-3.2l-64-64-51.2 16-16 48 64 64c3.2 3.2 6.4 9.6 3.2 12.8 0 6.4-3.2 9.6-9.6 12.8-73.6 32-160 16-214.4-38.4-48-48-67.2-118.4-48-185.6l-243.2-243.2c-67.2 19.2-137.6 0-185.6-48-57.6-57.6-70.4-144-38.4-214.4 3.2-3.2 6.4-9.6 12.8-9.6s9.6 0 12.8 3.2l64 64 51.2-16 16-48-64-64c-3.2-3.2-6.4-9.6-3.2-12.8 0-6.4 3.2-9.6 9.6-12.8 25.6-12.8 51.2-16 76.8-16 51.2 0 99.2 19.2 137.6 54.4 48 48 67.2 118.4 48 185.6l243.2 243.2zM166.4 614.4c3.2-3.2 6.4-6.4 12.8-6.4h38.4l92.8-92.8c3.2-3.2 6.4-3.2 12.8-3.2s9.6 3.2 12.8 3.2l89.6 89.6c3.2 3.2 3.2 6.4 3.2 12.8s-3.2 9.6-3.2 12.8l-92.8 92.8v38.4c0 6.4-3.2 9.6-6.4 12.8l-137.6 89.6c-6.4 3.2-16 3.2-19.2-3.2l-92.8-89.6c-3.2-6.4-6.4-16 0-19.2l89.6-137.6zM947.2 156.8c-3.2 44.8-25.6 86.4-60.8 115.2l-73.6 57.6 32 32c12.8 12.8 12.8 28.8 0 41.6l-3.2 3.2c-9.6 9.6-28.8 9.6-41.6 0l-80-80-51.2 57.6c-6.4 6.4-16 6.4-22.4 0l-89.6-89.6c-6.4-6.4-6.4-16 0-22.4l54.4-54.4-80-80c-12.8-12.8-12.8-28.8 0-41.6l3.2-3.2c6.4-6.4 12.8-9.6 19.2-9.6 0 0 0 0 0 0 6.4 0 16 3.2 19.2 9.6l32 32 57.6-73.6c28.8-35.2 70.4-57.6 115.2-60.8 3.2 0 6.4 0 9.6 0 41.6 0 83.2 16 112 48 35.2 28.8 51.2 73.6 48 118.4zM816 121.6c-6.4-6.4-12.8-6.4-19.2-6.4s-12.8 3.2-19.2 6.4l-25.6 25.6c-9.6 9.6-9.6 25.6 0 35.2s25.6 9.6 35.2 0l25.6-25.6c16-9.6 16-25.6 3.2-35.2z" />
<glyph unicode="&#xe90d;" glyph-name="weixiu" d="M694.4 492.8c70.4-16 140.8 6.4 192 54.4 60.8 60.8 76.8 153.6 41.6 233.6-3.2 9.6-12.8 16-22.4 19.2s-22.4 0-28.8-9.6l-57.6-57.6-32 9.6-9.6 32 57.6 57.6c6.4 6.4 9.6 19.2 9.6 28.8-3.2 9.6-9.6 19.2-19.2 22.4-80 35.2-172.8 19.2-233.6-41.6-51.2-51.2-70.4-121.6-54.4-192l-230.4-230.4c-70.4 16-140.8-6.4-192-54.4-60.8-60.8-76.8-153.6-41.6-233.6 3.2-9.6 12.8-16 22.4-19.2s22.4 0 28.8 9.6l57.6 54.4 32-9.6 9.6-32-57.6-57.6c-6.4-6.4-9.6-19.2-9.6-28.8 3.2-6.4 9.6-16 19.2-19.2 25.6-12.8 57.6-19.2 86.4-19.2 54.4 0 108.8 22.4 147.2 60.8 51.2 51.2 70.4 121.6 54.4 192l230.4 230.4zM406.4 294.4c-9.6-9.6-12.8-22.4-6.4-32 16-51.2 3.2-108.8-35.2-147.2-28.8-28.8-70.4-44.8-112-41.6l28.8 28.8c9.6 9.6 12.8 19.2 6.4 32l-19.2 64c-3.2 9.6-9.6 19.2-19.2 22.4l-67.2 22.4c-12.8 3.2-25.6 0-32-6.4l-32-32c-3.2 41.6 12.8 83.2 41.6 115.2 38.4 38.4 92.8 51.2 147.2 35.2 12.8-3.2 22.4 0 32 6.4l256 256c9.6 9.6 12.8 22.4 6.4 32-16 51.2-3.2 108.8 35.2 147.2 28.8 28.8 70.4 44.8 112 41.6l-32-32c-9.6-9.6-12.8-19.2-6.4-32l19.2-64c3.2-9.6 9.6-19.2 19.2-22.4l67.2-22.4c12.8-3.2 25.6 0 32 6.4l32 32c3.2-41.6-12.8-83.2-41.6-112-38.4-38.4-92.8-51.2-147.2-35.2-12.8 3.2-22.4 0-32-6.4l-252.8-256zM156.8 611.2c6.4-9.6 16-16 28.8-12.8h28.8l89.6-89.6c6.4-6.4 12.8-9.6 22.4-9.6s16 3.2 22.4 9.6l89.6 89.6c12.8 12.8 12.8 32 0 44.8l-86.4 89.6v32c0 9.6-6.4 22.4-12.8 28.8l-137.6 86.4c-12.8 9.6-28.8 9.6-38.4-3.2l-92.8-89.6c-9.6-9.6-12.8-28.8-3.2-41.6l89.6-134.4zM188.8 812.8l99.2-64v-25.6c0-9.6 3.2-19.2 9.6-25.6l76.8-76.8-48-44.8-76.8 76.8c-6.4 6.4-12.8 9.6-22.4 9.6 0 0 0 0 0 0h-25.6l-67.2 99.2 54.4 51.2zM796.8 188.8c-9.6 9.6-25.6 9.6-35.2 0s-9.6-25.6 0-35.2l25.6-25.6c6.4-6.4 12.8-6.4 19.2-6.4s12.8 3.2 19.2 6.4c9.6 9.6 9.6 25.6 0 35.2l-28.8 25.6zM969.6 163.2c-3.2 51.2-25.6 96-64 128l-67.2 54.4 19.2 19.2c12.8 12.8 12.8 32 0 44.8l-3.2 3.2c-6.4 6.4-12.8 9.6-22.4 9.6s-16-3.2-22.4-9.6l-44.8-44.8c0 0 0 0 0 0l-22.4-22.4-54.4 54.4c-12.8 12.8-32 12.8-44.8 0l-89.6-89.6c-12.8-12.8-12.8-32 0-44.8l54.4-54.4-22.4-22.4c0 0 0 0 0 0l-44.8-44.8c-12.8-12.8-12.8-32 0-44.8l3.2-3.2c6.4-6.4 12.8-9.6 22.4-9.6 0 0 0 0 0 0 9.6 0 16 3.2 22.4 9.6l19.2 19.2 54.4-67.2c32-38.4 76.8-64 128-64 3.2 0 6.4 0 9.6 0 44.8 0 89.6 19.2 124.8 51.2 28.8 28.8 48 76.8 44.8 128zM617.6 288l44.8 44.8 32-32-48-44.8-28.8 32zM873.6 73.6c-22.4-22.4-54.4-35.2-83.2-32-32 3.2-60.8 16-80 41.6l-57.6 73.6 140.8 140.8 73.6-57.6c25.6-19.2 38.4-48 41.6-80 0-32-12.8-64-35.2-86.4z" />
<glyph unicode="&#xe90e;" glyph-name="shenhe-01" d="M601.6 899.2c22.4 0 41.6-19.2 41.6-41.6s-19.2-41.6-41.6-41.6h-192c-22.4 0-41.6 19.2-41.6 41.6s19.2 41.6 41.6 41.6h192zM825.6 857.6h-150.4c0 0 0 0 0 0 0-41.6-32-73.6-73.6-73.6h-192c-41.6 0-73.6 32-73.6 73.6 0 0 0 0 0 0h-150.4c-54.4 0-96-41.6-96-96v-672c0-54.4 41.6-96 96-96h640c54.4 0 96 41.6 96 96v672c0 54.4-41.6 96-96 96zM755.2 531.2l-272-272c-6.4-6.4-12.8-9.6-22.4-9.6s-16 3.2-22.4 9.6l-112 112c-12.8 12.8-12.8 32 0 44.8s32 12.8 44.8 0l89.6-89.6 249.6 249.6c12.8 12.8 32 12.8 44.8 0s9.6-32 0-44.8z" />
<glyph unicode="&#xe90f;" glyph-name="shenhe" d="M608 825.6h-192c-22.4 0-38.4 16-38.4 38.4s16 38.4 38.4 38.4h192c22.4 0 38.4-16 38.4-38.4s-16-38.4-38.4-38.4zM864 0h-704c-54.4 0-96 41.6-96 96v704c0 54.4 41.6 96 96 96h96c19.2 0 32-12.8 32-32s-12.8-32-32-32h-96c-19.2 0-32-12.8-32-32v-704c0-19.2 12.8-32 32-32h704c19.2 0 32 12.8 32 32v704c0 19.2-12.8 32-32 32h-96c-19.2 0-32 12.8-32 32s12.8 32 32 32h96c54.4 0 96-41.6 96-96v-704c0-54.4-41.6-96-96-96zM464 256c-9.6 0-16 3.2-22.4 9.6l-112 112c-12.8 12.8-12.8 32 0 44.8s32 12.8 44.8 0l89.6-89.6 249.6 249.6c12.8 12.8 32 12.8 44.8 0s12.8-32 0-44.8l-272-272c-6.4-6.4-12.8-9.6-22.4-9.6z" />
<glyph unicode="&#xe910;" glyph-name="bohui-01" d="M601.6 899.2c22.4 0 41.6-19.2 41.6-41.6s-19.2-41.6-41.6-41.6h-192c-22.4 0-41.6 19.2-41.6 41.6s19.2 41.6 41.6 41.6h192zM825.6 857.6h-150.4c0 0 0 0 0 0 0-41.6-32-73.6-73.6-73.6h-192c-41.6 0-73.6 32-73.6 73.6 0 0 0 0 0 0h-150.4c-54.4 0-96-41.6-96-96v-672c0-54.4 41.6-96 96-96h640c54.4 0 96 41.6 96 96v672c0 54.4-41.6 96-96 96zM601.6 246.4h-64c-12.8 0-25.6 12.8-25.6 25.6s12.8 25.6 25.6 25.6h64c38.4 0 70.4 32 70.4 70.4s-32 70.4-70.4 70.4h-224l48-48c9.6-9.6 9.6-25.6 0-35.2-6.4-6.4-12.8-6.4-19.2-6.4s-12.8 3.2-19.2 6.4l-89.6 89.6c-9.6 9.6-9.6 25.6 0 35.2l89.6 89.6c9.6 9.6 25.6 9.6 35.2 0s9.6-25.6 0-35.2l-48-48h224c67.2 0 121.6-54.4 121.6-121.6s-51.2-118.4-118.4-118.4z" />
<glyph unicode="&#xe911;" glyph-name="bohui" d="M608 825.6h-192c-22.4 0-38.4 16-38.4 38.4s16 38.4 38.4 38.4h192c22.4 0 38.4-16 38.4-38.4s-16-38.4-38.4-38.4zM864 0h-704c-54.4 0-96 41.6-96 96v704c0 54.4 41.6 96 96 96h96c19.2 0 32-12.8 32-32s-12.8-32-32-32h-96c-19.2 0-32-12.8-32-32v-704c0-19.2 12.8-32 32-32h704c19.2 0 32 12.8 32 32v704c0 19.2-12.8 32-32 32h-96c-19.2 0-32 12.8-32 32s12.8 32 32 32h96c54.4 0 96-41.6 96-96v-704c0-54.4-41.6-96-96-96zM608 249.6h-64c-12.8 0-25.6 12.8-25.6 25.6s12.8 25.6 25.6 25.6h64c38.4 0 70.4 32 70.4 70.4s-32 70.4-70.4 70.4h-249.6c-12.8 0-25.6 12.8-25.6 25.6s12.8 25.6 25.6 25.6h249.6c67.2 0 121.6-54.4 121.6-121.6s-54.4-121.6-121.6-121.6zM412.8 352c-6.4 0-12.8 3.2-19.2 6.4l-89.6 89.6c-9.6 9.6-9.6 25.6 0 35.2l89.6 89.6c9.6 9.6 25.6 9.6 35.2 0s9.6-25.6 0-35.2l-73.6-73.6 73.6-73.6c9.6-9.6 9.6-25.6 0-35.2-3.2 0-9.6-3.2-16-3.2z" />
<glyph unicode="&#xe912;" glyph-name="fanhjl-01" d="M601.6 899.2c22.4 0 41.6-19.2 41.6-41.6s-19.2-41.6-41.6-41.6h-192c-22.4 0-41.6 19.2-41.6 41.6s19.2 41.6 41.6 41.6h192zM825.6 857.6h-150.4c0 0 0 0 0 0 0-41.6-32-73.6-73.6-73.6h-192c-41.6 0-73.6 32-73.6 73.6 0 0 0 0 0 0h-150.4c-54.4 0-96-41.6-96-96v-672c0-54.4 41.6-96 96-96h640c54.4 0 96 41.6 96 96v672c0 54.4-41.6 96-96 96zM672 540.8c0-12.8-12.8-25.6-25.6-25.6h-86.4c-12.8 0-25.6 12.8-25.6 25.6s12.8 25.6 25.6 25.6h22.4c-67.2 35.2-150.4 25.6-204.8-32-32-32-51.2-76.8-51.2-124.8s19.2-92.8 51.2-124.8c67.2-67.2 179.2-67.2 249.6 0 9.6 9.6 25.6 9.6 35.2 0s9.6-25.6 0-35.2c-44.8-44.8-102.4-67.2-160-67.2s-115.2 22.4-160 67.2c-41.6 41.6-67.2 99.2-67.2 160s22.4 118.4 67.2 160c76.8 76.8 192 86.4 278.4 32v22.4c0 12.8 12.8 25.6 25.6 25.6s25.6-6.4 25.6-22.4v-86.4z" />
<glyph unicode="&#xe913;" glyph-name="fanhjl" d="M416 828.8h192c22.4 0 38.4 16 38.4 38.4s-16 38.4-38.4 38.4h-192c-22.4 0-38.4-16-38.4-38.4s16-38.4 38.4-38.4zM864 899.2h-96c-19.2 0-32-12.8-32-32s12.8-32 32-32h96c19.2 0 32-12.8 32-32v-704c0-19.2-12.8-32-32-32h-704c-19.2 0-32 12.8-32 32v704c0 19.2 12.8 32 32 32h96c19.2 0 32 12.8 32 32s-12.8 32-32 32h-96c-54.4 0-96-41.6-96-96v-704c0-54.4 41.6-96 96-96h704c54.4 0 96 41.6 96 96v704c0 54.4-41.6 96-96 96zM336 240c48-48 108.8-73.6 176-73.6s128 25.6 176 73.6c9.6 9.6 9.6 25.6 0 35.2s-25.6 9.6-35.2 0c-38.4-38.4-86.4-57.6-140.8-57.6s-102.4 19.2-140.8 57.6c-76.8 76.8-76.8 204.8 0 281.6 38.4 38.4 86.4 57.6 140.8 57.6 38.4 0 73.6-9.6 102.4-28.8h-38.4c-12.8 0-25.6-12.8-25.6-25.6s12.8-25.6 25.6-25.6h96c12.8 0 25.6 12.8 25.6 25.6v96c0 12.8-12.8 25.6-25.6 25.6s-25.6-12.8-25.6-25.6v-28.8c-38.4 25.6-86.4 38.4-134.4 38.4-67.2 0-128-25.6-176-73.6s-73.6-108.8-73.6-176 25.6-128 73.6-176z" />
<glyph unicode="&#xe914;" glyph-name="tuikuan-01" d="M960 480l-96 96c-3.2 3.2-6.4 6.4-9.6 6.4v211.2c0 54.4-41.6 96-96 96h-512c-54.4 0-96-41.6-96-96v-214.4c0 0-3.2 0-3.2-3.2l-96-96c-6.4-6.4-9.6-12.8-9.6-22.4v-352c0-54.4 41.6-96 96-96h736c54.4 0 96 41.6 96 96v352c0 9.6-3.2 16-9.6 22.4zM403.2 617.6c-12.8 0-25.6 12.8-25.6 25.6s12.8 25.6 25.6 25.6h44.8l-25.6 51.2c-6.4 12.8 0 28.8 12.8 35.2s28.8 0 35.2-12.8l35.2-73.6h3.2l35.2 73.6c6.4 12.8 22.4 19.2 35.2 12.8s19.2-22.4 12.8-35.2l-25.6-51.2h44.8c12.8 0 25.6-12.8 25.6-25.6s-12.8-25.6-25.6-25.6h-76.8v-32h76.8c12.8 0 25.6-12.8 25.6-25.6s-12.8-25.6-25.6-25.6h-76.8v-54.4c0-12.8-12.8-25.6-25.6-25.6s-28.8 9.6-28.8 22.4v54.4h-76.8c-12.8 0-25.6 12.8-25.6 25.6s12.8 25.6 25.6 25.6h76.8v32h-76.8zM873.6 163.2c9.6-9.6 9.6-25.6 0-35.2-6.4-6.4-12.8-6.4-19.2-6.4s-12.8 3.2-19.2 6.4l-163.2 160-153.6-83.2c-3.2-3.2-6.4-3.2-12.8-3.2-3.2 0-9.6 0-12.8 3.2l-156.8 83.2-163.2-163.2c-6.4-6.4-12.8-6.4-19.2-6.4s-12.8 3.2-19.2 6.4c-9.6 9.6-9.6 25.6 0 35.2l153.6 153.6-144 76.8c-12.8 6.4-16 22.4-9.6 35.2s22.4 16 35.2 9.6l336-179.2 339.2 182.4c12.8 6.4 28.8 3.2 35.2-9.6s3.2-28.8-9.6-35.2l-150.4-80 153.6-150.4z" />
<glyph unicode="&#xe915;" glyph-name="tuikuan" d="M966.4 486.4l-96 96c-3.2 3.2-6.4 6.4-9.6 6.4v211.2c0 54.4-41.6 96-96 96h-512c-54.4 0-96-41.6-96-96v-214.4c0 0-3.2 0-3.2-3.2l-96-96c-6.4-6.4-9.6-12.8-9.6-22.4v-352c0-54.4 41.6-96 96-96h736c54.4 0 96 41.6 96 96v352c0 6.4-3.2 16-9.6 22.4zM220.8 800c0 19.2 12.8 32 32 32h512c19.2 0 32-12.8 32-32v-384c0 0 0 0 0-3.2l-284.8-153.6-291.2 153.6c0 0 0 0 0 3.2v384zM912 112c0-19.2-12.8-32-32-32h-736c-19.2 0-32 12.8-32 32v339.2l44.8 44.8v-54.4c-6.4 0-12.8-6.4-16-12.8-6.4-12.8-3.2-28.8 9.6-35.2l144-76.8-153.6-153.6c-9.6-9.6-9.6-25.6 0-35.2 6.4-6.4 12.8-6.4 19.2-6.4s12.8 3.2 19.2 6.4l163.2 163.2 156.8-83.2c3.2-3.2 6.4-3.2 12.8-3.2 3.2 0 9.6 0 12.8 3.2l153.6 83.2 166.4-160c6.4-3.2 12.8-6.4 19.2-6.4s12.8 3.2 19.2 6.4c9.6 9.6 9.6 25.6 0 35.2l-153.6 147.2 150.4 80c12.8 6.4 16 22.4 9.6 35.2-6.4 9.6-16 12.8-25.6 12.8v54.4l51.2-51.2v-332.8zM409.6 588.8c-12.8 0-25.6-12.8-25.6-25.6s12.8-25.6 25.6-25.6h76.8v-54.4c0-12.8 12.8-25.6 25.6-25.6s25.6 12.8 25.6 25.6v54.4h76.8c12.8 0 25.6 12.8 25.6 25.6s-12.8 25.6-25.6 25.6h-76.8v32h76.8c12.8 0 25.6 12.8 25.6 25.6s-9.6 25.6-25.6 25.6h-44.8l25.6 51.2c6.4 12.8 0 28.8-12.8 35.2s-28.8 0-35.2-12.8l-32-73.6h-3.2l-35.2 73.6c-6.4 12.8-22.4 19.2-35.2 12.8s-19.2-22.4-12.8-35.2l25.6-51.2h-44.8c-16 0-25.6-9.6-25.6-25.6s12.8-25.6 25.6-25.6h76.8v-32h-76.8z" />
<glyph unicode="&#xe916;" glyph-name="jiank-01" d="M873.6 451.2l-147.2 214.4h-438.4l-150.4-217.6c-54.4-86.4-64-195.2-25.6-291.2 48-121.6 166.4-201.6 300.8-201.6h185.6c131.2 0 249.6 80 300.8 201.6 38.4 96 28.8 204.8-25.6 294.4zM630.4 304c12.8 0 25.6-12.8 25.6-25.6s-12.8-25.6-25.6-25.6h-99.2v-73.6c0-12.8-12.8-25.6-25.6-25.6s-25.6 12.8-25.6 25.6v73.6h-96c-12.8 0-25.6 12.8-25.6 25.6s12.8 25.6 25.6 25.6h96v48h-96c-12.8 0-25.6 12.8-25.6 25.6s12.8 25.6 25.6 25.6h60.8l-35.2 67.2c-6.4 12.8 0 28.8 12.8 35.2s28.8 0 35.2-12.8l44.8-89.6h9.6l44.8 89.6c6.4 12.8 22.4 19.2 35.2 12.8s19.2-22.4 12.8-35.2l-35.2-67.2h60.8c12.8 0 25.6-12.8 25.6-25.6s-12.8-25.6-25.6-25.6h-99.2v-48h99.2zM300.8 716.8h409.6l28.8 89.6c6.4 22.4 0 44.8-19.2 60.8-19.2 12.8-44.8 16-64 0-9.6-6.4-19.2-6.4-28.8 3.2l-19.2 19.2c-25.6 25.6-57.6 41.6-92.8 38.4-35.2 0-70.4-16-92.8-41.6l-16-19.2c-6.4-6.4-16-9.6-25.6-6.4l-41.6 22.4c-19.2 9.6-41.6 6.4-60.8-6.4-9.6-16-16-38.4-9.6-57.6l32-102.4z" />
<glyph unicode="&#xe917;" glyph-name="jiank" d="M614.4 348.8c12.8 0 25.6 12.8 25.6 25.6s-12.8 25.6-25.6 25.6h-44.8l25.6 51.2c6.4 12.8 0 28.8-12.8 35.2s-28.8 0-35.2-12.8l-35.2-73.6h-3.2l-35.2 73.6c-6.4 12.8-22.4 19.2-35.2 12.8s-19.2-22.4-12.8-35.2l25.6-51.2h-44.8c-12.8 0-25.6-12.8-25.6-25.6s12.8-25.6 25.6-25.6h76.8v-32h-76.8c-12.8 0-25.6-12.8-25.6-25.6s12.8-25.6 25.6-25.6h76.8v-54.4c0-12.8 12.8-25.6 25.6-25.6s25.6 12.8 25.6 25.6v54.4h76.8c12.8 0 25.6 12.8 25.6 25.6s-12.8 25.6-25.6 25.6h-76.8v32h80zM880 454.4l-169.6 246.4 38.4 108.8c6.4 22.4 0 44.8-19.2 60.8-19.2 12.8-44.8 16-64 0-9.6-6.4-19.2-6.4-28.8 3.2l-19.2 19.2c-25.6 25.6-60.8 41.6-92.8 38.4-35.2 0-70.4-16-92.8-41.6l-16-16c-6.4-9.6-16-9.6-25.6-6.4l-41.6 22.4c-19.2 9.6-41.6 6.4-57.6-9.6-16-12.8-22.4-35.2-16-57.6l41.6-121.6-169.6-246.4c-54.4-86.4-64-195.2-25.6-291.2 48-121.6 166.4-201.6 300.8-201.6h185.6c131.2 0 249.6 80 300.8 201.6 35.2 96 25.6 204.8-28.8 291.2zM361.6 809.6c35.2-19.2 76.8-9.6 102.4 19.2l16 19.2c12.8 12.8 28.8 22.4 44.8 22.4 19.2 0 35.2-6.4 48-19.2l19.2-19.2c22.4-25.6 57.6-32 86.4-22.4l-28.8-80h-278.4l-28.8 89.6 19.2-9.6zM844.8 188.8c-38.4-99.2-134.4-163.2-240-163.2h-185.6c-105.6 0-201.6 64-240 163.2-32 76.8-22.4 163.2 19.2 230.4l169.6 246.4h291.2l169.6-243.2c41.6-70.4 48-156.8 16-233.6z" />
<glyph unicode="&#xe918;" glyph-name="huiyue-01" d="M960 480l-96 96c-3.2 3.2-6.4 6.4-9.6 6.4v211.2c0 54.4-41.6 96-96 96h-156.8l25.6-131.2-156.8-144v-96l-64 105.6 108.8 131.2-108.8 134.4h-160c-54.4 0-96-41.6-96-96v-214.4c0 0-3.2 0-3.2-3.2l-96-96c-6.4-6.4-9.6-12.8-9.6-22.4v-352c0-54.4 41.6-96 96-96h736c54.4 0 96 41.6 96 96v352c0 9.6-3.2 16-9.6 22.4zM873.6 163.2c9.6-9.6 9.6-25.6 0-35.2-6.4-6.4-12.8-6.4-19.2-6.4s-12.8 3.2-19.2 6.4l-163.2 160-153.6-83.2c-3.2-3.2-6.4-3.2-12.8-3.2-3.2 0-9.6 0-12.8 3.2l-156.8 83.2-163.2-163.2c-6.4-6.4-12.8-6.4-19.2-6.4s-12.8 3.2-19.2 6.4c-9.6 9.6-9.6 25.6 0 35.2l153.6 153.6-144 76.8c-12.8 6.4-16 22.4-9.6 35.2s22.4 16 35.2 9.6l336-179.2 339.2 182.4c12.8 6.4 28.8 3.2 35.2-9.6s3.2-28.8-9.6-35.2l-150.4-80 153.6-150.4z" />
<glyph unicode="&#xe919;" glyph-name="huiyue" d="M966.4 486.4l-96 96c-3.2 3.2-6.4 6.4-9.6 6.4v211.2c0 54.4-41.6 96-96 96h-115.2c-9.6 0-19.2-3.2-25.6-12.8-6.4-6.4-9.6-16-6.4-25.6l19.2-128-147.2-166.4c-6.4-6.4-9.6-12.8-9.6-22.4v-48l-64 73.6 92.8 140.8c6.4 9.6 6.4 22.4 0 35.2l-83.2 134.4c-3.2 12.8-16 19.2-25.6 19.2h-147.2c-54.4 0-96-41.6-96-96v-214.4c0 0-3.2 0-3.2-3.2l-96-96c-6.4-6.4-9.6-12.8-9.6-22.4v-352c0-54.4 41.6-96 96-96h736c54.4 0 96 41.6 96 96v352c0 6.4-3.2 16-9.6 22.4zM220.8 800c0 19.2 12.8 32 32 32h128l64-102.4-96-144c-9.6-12.8-6.4-28.8 3.2-38.4l137.6-153.6c6.4-6.4 16-9.6 22.4-9.6 3.2 0 6.4 0 12.8 3.2 12.8 3.2 19.2 16 19.2 28.8v118.4l150.4 169.6c6.4 6.4 9.6 16 6.4 25.6l-16 102.4h80c19.2 0 32-12.8 32-32v-384c0 0 0 0 0-3.2l-284.8-153.6-291.2 153.6c0 0 0 0 0 3.2v384zM912 112c0-19.2-12.8-32-32-32h-736c-19.2 0-32 12.8-32 32v339.2l44.8 44.8v-54.4c-6.4 0-12.8-6.4-16-12.8-6.4-12.8-3.2-28.8 9.6-35.2l144-76.8-153.6-153.6c-9.6-9.6-9.6-25.6 0-35.2 6.4-6.4 12.8-6.4 19.2-6.4s12.8 3.2 19.2 6.4l163.2 163.2 156.8-83.2c3.2-3.2 6.4-3.2 12.8-3.2 3.2 0 9.6 0 12.8 3.2l153.6 83.2 166.4-160c6.4-3.2 12.8-6.4 19.2-6.4s12.8 3.2 19.2 6.4c9.6 9.6 9.6 25.6 0 35.2l-153.6 147.2 150.4 80c12.8 6.4 16 22.4 9.6 35.2-6.4 9.6-16 12.8-25.6 12.8v54.4l51.2-51.2v-332.8z" />
<glyph unicode="&#xe91a;" glyph-name="zhuangxiu-01" d="M64 377.6v-64c0-70.4 57.6-128 128-128h640c70.4 0 128 57.6 128 128v64h-896zM272 732.8c32 0 60.8-25.6 60.8-60.8v-28.8c0-12.8 9.6-22.4 22.4-22.4s22.4 9.6 22.4 22.4c0 48 38.4 86.4 83.2 86.4s83.2-38.4 83.2-83.2v-32c0-16 12.8-28.8 28.8-28.8s28.8 12.8 28.8 28.8v32c0 48 38.4 86.4 86.4 86.4h41.6c12.8 0 25.6 9.6 25.6 25.6v131.2h-515.2v-128c0-16 12.8-28.8 32-28.8zM864 889.6h-67.2v-134.4c0-35.2-28.8-64-64-64h-41.6c-25.6 0-48-22.4-48-48v-28.8c0-38.4-28.8-67.2-67.2-67.2s-67.2 28.8-67.2 67.2v32c0 25.6-19.2 44.8-44.8 44.8s-48-19.2-48-44.8c0-35.2-28.8-64-60.8-64s-60.8 28.8-60.8 60.8v28.8c0 12.8-9.6 22.4-22.4 22.4-38.4 0-70.4 32-70.4 70.4v128h-41.6c-54.4 0-96-41.6-96-96v-352h896v352c0 51.2-44.8 92.8-96 92.8zM649.6 102.4l-12.8 121.6c-3.2 16-16 28.8-32 28.8h-192c-16 0-28.8-12.8-32-28.8l-12.8-118.4c-6.4-35.2 3.2-70.4 28.8-99.2 22.4-28.8 57.6-44.8 92.8-44.8h41.6c35.2 0 70.4 16 92.8 44.8s32 64 25.6 96zM505.6 41.6c-25.6 0-48 22.4-48 48s22.4 48 48 48 48-22.4 48-48-19.2-48-48-48z" />
<glyph unicode="&#xe91b;" glyph-name="zhuangxiu" d="M867.2 896h-704c-54.4 0-96-41.6-96-96v-480c0-70.4 57.6-128 128-128h185.6l-9.6-83.2c-6.4-35.2 3.2-70.4 28.8-99.2s57.6-44.8 92.8-44.8h41.6c35.2 0 70.4 16 92.8 44.8s32 64 28.8 99.2l-9.6 83.2h192c70.4 0 128 57.6 128 128v480c-3.2 54.4-44.8 96-99.2 96zM467.2 742.4c-51.2 0-89.6-41.6-89.6-92.8 0-9.6-6.4-16-16-16s-16 6.4-16 16v28.8c0 35.2-28.8 67.2-67.2 67.2-16 0-25.6 9.6-25.6 22.4v64h502.4v-70.4c0-9.6-9.6-19.2-19.2-19.2h-41.6c-51.2 0-92.8-41.6-92.8-92.8v-28.8c0-12.8-9.6-22.4-22.4-22.4s-22.4 9.6-22.4 22.4v32c0 51.2-41.6 89.6-89.6 89.6zM163.2 832h35.2v-64c0-41.6 35.2-76.8 76.8-76.8 6.4 0 16-6.4 16-16v-28.8c0-38.4 32-67.2 67.2-67.2 38.4 0 67.2 32 67.2 70.4 0 22.4 19.2 38.4 38.4 38.4s38.4-19.2 38.4-38.4v-32c0-41.6 32-73.6 73.6-73.6s73.6 32 73.6 73.6v32c0 22.4 19.2 41.6 41.6 41.6h44.8c38.4 0 70.4 32 70.4 70.4v70.4h60.8c19.2 0 32-12.8 32-32v-352h-768v352c0 19.2 16 32 32 32zM592 99.2c3.2-16-3.2-35.2-12.8-48s-28.8-19.2-44.8-19.2h-41.6c-16 0-32 6.4-44.8 19.2s-16 28.8-12.8 48l9.6 89.6h134.4l12.8-89.6zM835.2 256h-640c-35.2 0-64 28.8-64 64v64h768v-64c0-35.2-28.8-64-64-64zM560 96c0-26.51-21.49-48-48-48s-48 21.49-48 48c0 26.51 21.49 48 48 48s48-21.49 48-48z" />
<glyph unicode="&#xe91c;" glyph-name="zxjl-01" d="M601.6 899.2c22.4 0 41.6-19.2 41.6-41.6s-19.2-41.6-41.6-41.6h-192c-22.4 0-41.6 19.2-41.6 41.6s19.2 41.6 41.6 41.6h192zM528 182.4c0-10.604-8.596-19.2-19.2-19.2s-19.2 8.596-19.2 19.2c0 10.604 8.596 19.2 19.2 19.2s19.2-8.596 19.2-19.2zM825.6 857.6h-150.4c0 0 0 0 0 0 0-41.6-32-73.6-73.6-73.6h-192c-41.6 0-73.6 32-73.6 73.6 0 0 0 0 0 0h-150.4c-54.4 0-96-41.6-96-96v-672c0-54.4 41.6-96 96-96h640c54.4 0 96 41.6 96 96v672c0 54.4-41.6 96-96 96zM355.2 643.2h300.8v-60.8c0-6.4-3.2-9.6-9.6-9.6h-25.6c-32 0-57.6-25.6-57.6-57.6v-16c0-6.4-6.4-12.8-12.8-12.8s-12.8 6.4-12.8 12.8v19.2c0 28.8-25.6 54.4-54.4 54.4s-54.4-25.6-54.4-54.4c0-6.4-3.2-9.6-9.6-9.6s-9.6 3.2-9.6 9.6v16c0 22.4-19.2 41.6-41.6 41.6-6.4 0-12.8 6.4-12.8 12.8v54.4zM761.6 323.2c0-35.2-28.8-64-64-64h-131.2l9.6-70.4c6.4-32-19.2-64-54.4-64h-25.6c-32 0-57.6 28.8-54.4 64l9.6 70.4h-124.8c-35.2 0-64 28.8-64 64v32h499.2v-32zM761.6 393.6h-499.2v217.6c0 19.2 12.8 32 32 32h28.8v-57.6c0-25.6 19.2-44.8 44.8-44.8 3.2 0 9.6-3.2 9.6-9.6v-16c0-22.4 19.2-41.6 41.6-41.6s41.6 19.2 41.6 41.6c0 12.8 9.6 22.4 22.4 22.4s22.4-9.6 22.4-22.4v-19.2c0-25.6 19.2-44.8 44.8-44.8s44.8 19.2 44.8 44.8v16c0 12.8 9.6 25.6 25.6 25.6h25.6c22.4 0 41.6 19.2 41.6 41.6v64h41.6c19.2 0 32-12.8 32-32v-217.6z" />
<glyph unicode="&#xe91d;" glyph-name="zxjl" d="M368 624c22.4 0 41.6-19.2 41.6-41.6v-16c0-6.4 3.2-9.6 9.6-9.6s9.6 3.2 9.6 9.6c0 32 25.6 54.4 54.4 54.4s54.4-25.6 54.4-54.4v-19.2c0-6.4 6.4-12.8 12.8-12.8s12.8 6.4 12.8 12.8v16c0 32 25.6 57.6 57.6 57.6h25.6c6.4 0 9.6 3.2 9.6 9.6v64h-300.8v-57.6c0-6.4 6.4-12.8 12.8-12.8zM761.6 374.4v32h-499.2v-32c0-35.2 28.8-64 64-64h124.8l-9.6-70.4c-6.4-32 19.2-64 54.4-64h25.6c32 0 57.6 28.8 54.4 64l-9.6 70.4h131.2c35.2 0 64 28.8 64 64zM508.8 214.4c-9.6 0-19.2 9.6-19.2 19.2s9.6 19.2 19.2 19.2c9.6 0 19.2-9.6 19.2-19.2s-6.4-19.2-19.2-19.2zM262.4 662.4v-217.6h499.2v217.6c0 19.2-12.8 32-32 32h-41.6v-60.8c0-22.4-19.2-41.6-41.6-41.6h-25.6c-12.8 0-25.6-9.6-25.6-25.6v-16c0-25.6-19.2-44.8-44.8-44.8s-44.8 19.2-44.8 44.8v19.2c0 12.8-9.6 22.4-22.4 22.4s-22.4-9.6-22.4-22.4c0-22.4-19.2-41.6-41.6-41.6s-41.6 19.2-41.6 41.6v16c0 3.2-3.2 9.6-9.6 9.6-25.6 0-44.8 19.2-44.8 44.8v54.4h-28.8c-19.2 0-32-12.8-32-32zM416 822.4h192c22.4 0 41.6 19.2 41.6 41.6s-19.2 41.6-41.6 41.6h-192c-22.4 0-41.6-19.2-41.6-41.6s19.2-41.6 41.6-41.6zM864 896h-96c-19.2 0-32-12.8-32-32s12.8-32 32-32h96c19.2 0 32-12.8 32-32v-704c0-19.2-12.8-32-32-32h-704c-19.2 0-32 12.8-32 32v704c0 19.2 12.8 32 32 32h96c19.2 0 32 12.8 32 32s-12.8 32-32 32h-96c-54.4 0-96-41.6-96-96v-704c0-54.4 41.6-96 96-96h704c54.4 0 96 41.6 96 96v704c0 54.4-41.6 96-96 96z" />
<glyph unicode="&#xe91e;" glyph-name="yjsgdj-01" d="M601.6 899.2c22.4 0 41.6-19.2 41.6-41.6s-19.2-41.6-41.6-41.6h-192c-22.4 0-41.6 19.2-41.6 41.6s19.2 41.6 41.6 41.6h192zM825.6 857.6h-150.4c0 0 0 0 0 0 0-41.6-32-73.6-73.6-73.6h-192c-41.6 0-73.6 32-73.6 73.6 0 0 0 0 0 0h-150.4c-54.4 0-96-41.6-96-96v-672c0-54.4 41.6-96 96-96h640c54.4 0 96 41.6 96 96v672c0 54.4-41.6 96-96 96zM700.8 480c3.2 0 3.2-3.2 3.2-6.4s-3.2-6.4-3.2-6.4l-22.4-6.4c-3.2 0-3.2-3.2-3.2-3.2l-6.4-22.4c0-3.2-3.2-3.2-6.4-3.2s-6.4 3.2-6.4 3.2l-6.4 22.4c0 3.2-3.2 3.2-3.2 3.2l-22.4 6.4c-3.2 0-3.2 3.2-3.2 6.4s3.2 6.4 3.2 6.4l22.4 6.4c3.2 0 3.2 3.2 3.2 3.2l6.4 22.4c0 6.4 9.6 6.4 12.8 0l6.4-22.4c0-3.2 3.2-3.2 3.2-3.2l22.4-6.4zM537.6 592l41.6 12.8c3.2 0 9.6 3.2 9.6 9.6l12.8 41.6c0 6.4 9.6 6.4 12.8 0l12.8-41.6c0-3.2 3.2-9.6 9.6-9.6l41.6-12.8c3.2 0 3.2-3.2 3.2-6.4s-3.2-6.4-3.2-6.4l-41.6-12.8c-3.2 0-9.6-6.4-9.6-9.6l-12.8-41.6c0-3.2-3.2-3.2-6.4-3.2s-6.4 3.2-6.4 3.2l-12.8 41.6c0 3.2-6.4 9.6-9.6 9.6l-41.6 12.8c-3.2 0-3.2 3.2-3.2 6.4s0 6.4 3.2 6.4zM505.6 185.6c-115.2 0-211.2 96-211.2 211.2-3.2 112 83.2 204.8 192 214.4 6.4 0 9.6-6.4 6.4-12.8-32-32-51.2-80-41.6-131.2 9.6-60.8 60.8-108.8 121.6-121.6 51.2-9.6 102.4 9.6 134.4 44.8 6.4 6.4 12.8 3.2 12.8-6.4-6.4-108.8-102.4-198.4-214.4-198.4z" />
<glyph unicode="&#xe91f;" glyph-name="yjsgdj" d="M416 822.4h192c22.4 0 41.6 19.2 41.6 41.6s-19.2 41.6-41.6 41.6h-192c-22.4 0-41.6-19.2-41.6-41.6s19.2-41.6 41.6-41.6zM864 896h-96c-19.2 0-32-12.8-32-32s12.8-32 32-32h96c19.2 0 32-12.8 32-32v-704c0-19.2-12.8-32-32-32h-704c-19.2 0-32 12.8-32 32v704c0 19.2 12.8 32 32 32h96c19.2 0 32 12.8 32 32s-12.8 32-32 32h-96c-54.4 0-96-41.6-96-96v-704c0-54.4 41.6-96 96-96h704c54.4 0 96 41.6 96 96v704c0 54.4-41.6 96-96 96zM678.4 544c-3.2 9.6-22.4 9.6-25.6 0l-6.4-22.4-22.4-6.4c-6.4 0-9.6-6.4-9.6-12.8s3.2-9.6 9.6-12.8l22.4-6.4 6.4-22.4c0-6.4 6.4-9.6 12.8-9.6s9.6 3.2 12.8 9.6l6.4 22.4 22.4 6.4c6.4 0 9.6 6.4 9.6 12.8s-3.2 9.6-9.6 12.8l-22.4 6.4-6.4 22.4zM665.6 502.4c0 0 0 0 0 0s0 0 0 0 0 0 0 0 0 0 0 0zM633.6 643.2l-12.8 41.6c0 6.4-6.4 9.6-12.8 9.6s-9.6-3.2-12.8-9.6l-12.8-41.6c0-3.2-3.2-3.2-6.4-6.4l-41.6-12.8c-6.4 0-9.6-6.4-9.6-12.8s3.2-9.6 9.6-12.8l41.6-12.8c3.2 0 3.2-3.2 6.4-6.4l12.8-41.6c0-6.4 6.4-9.6 12.8-9.6s9.6 3.2 12.8 9.6l12.8 41.6c0 3.2 3.2 3.2 6.4 6.4l41.6 12.8c6.4 0 9.6 6.4 9.6 12.8s-3.2 9.6-9.6 12.8l-41.6 12.8c-3.2 3.2-6.4 3.2-6.4 6.4zM512 198.4c0 0 0 0 0 0 121.6 0 220.8 92.8 230.4 214.4 0 12.8-3.2 22.4-12.8 25.6s-19.2 0-28.8-6.4c-32-32-73.6-48-118.4-38.4-54.4 9.6-99.2 54.4-108.8 108.8-6.4 44.8 6.4 86.4 35.2 118.4 6.4 6.4 9.6 16 3.2 25.6-3.2 9.6-12.8 12.8-22.4 12.8-118.4-9.6-208-112-208-230.4 3.2-124.8 108.8-227.2 230.4-230.4z" />
<glyph unicode="&#xe920;" glyph-name="edit01-01" d="M336 681.6v214.4l-249.6-252.8h211.2c22.4 0 38.4 19.2 38.4 38.4zM841.6 905.6h-454.4v-224c0-48-41.6-89.6-89.6-89.6h-224v-518.4c0-54.4 41.6-96 96-96h672c54.4 0 96 41.6 96 96v736c0 54.4-41.6 96-96 96zM352 217.6c-9.6-3.2-19.2 6.4-16 16l28.8 105.6 96-96-108.8-25.6zM716.8 505.6l-236.8-236.8-96 96 236.8 236.8c9.6 9.6 22.4 9.6 32 0l64-64c9.6-9.6 9.6-22.4 0-32z" />
<glyph unicode="&#xe921;" glyph-name="edit01" d="M848 912h-480c-9.6 0-16-3.2-22.4-9.6l-256-256c-6.4-6.4-9.6-12.8-9.6-22.4v-544c0-54.4 41.6-96 96-96h672c54.4 0 96 41.6 96 96v736c0 54.4-41.6 96-96 96zM342.4 809.6v-121.6c0-22.4-16-38.4-38.4-38.4h-121.6l160 160zM880 80c0-19.2-12.8-32-32-32h-672c-19.2 0-32 12.8-32 32v518.4h160c48 0 89.6 41.6 89.6 89.6v160h454.4c19.2 0 32-12.8 32-32v-736zM339.2 240c-3.2-9.6 6.4-19.2 16-16l105.6 28.8-96 96-25.6-108.8zM659.2 604.8c-9.6 9.6-22.4 9.6-32 0l-236.8-236.8 96-96 236.8 236.8c9.6 9.6 9.6 22.4 0 32l-64 64z" />
<glyph unicode="&#xe922;" glyph-name="search01-01" d="M336 681.6v214.4l-249.6-252.8h211.2c22.4 0 38.4 19.2 38.4 38.4zM640 422.4c0-72.46-58.74-131.2-131.2-131.2s-131.2 58.74-131.2 131.2c0 72.46 58.74 131.2 131.2 131.2s131.2-58.74 131.2-131.2zM841.6 905.6h-454.4v-224c0-48-41.6-89.6-89.6-89.6h-224v-518.4c0-54.4 41.6-96 96-96h672c54.4 0 96 41.6 96 96v736c0 54.4-41.6 96-96 96zM704 224c-6.4-6.4-12.8-6.4-19.2-6.4s-12.8 3.2-19.2 6.4l-51.2 51.2c-32-22.4-67.2-35.2-108.8-35.2-99.2 0-182.4 83.2-182.4 182.4s83.2 182.4 182.4 182.4 182.4-83.2 182.4-182.4c0-41.6-12.8-80-38.4-108.8l51.2-51.2c12.8-12.8 12.8-28.8 3.2-38.4z" />
<glyph unicode="&#xe923;" glyph-name="search01" d="M848 912h-480c-9.6 0-16-3.2-22.4-9.6l-256-256c-6.4-6.4-9.6-12.8-9.6-22.4v-544c0-54.4 41.6-96 96-96h672c54.4 0 96 41.6 96 96v736c0 54.4-41.6 96-96 96zM342.4 809.6v-121.6c0-22.4-16-38.4-38.4-38.4h-121.6l160 160zM880 80c0-19.2-12.8-32-32-32h-672c-19.2 0-32 12.8-32 32v518.4h160c48 0 89.6 41.6 89.6 89.6v160h454.4c19.2 0 32-12.8 32-32v-736zM659.2 316.8c22.4 32 38.4 67.2 38.4 108.8 0 99.2-83.2 182.4-182.4 182.4s-182.4-83.2-182.4-182.4 83.2-182.4 182.4-182.4c41.6 0 76.8 12.8 108.8 35.2l51.2-51.2c6.4-6.4 12.8-6.4 19.2-6.4s12.8 3.2 19.2 6.4c9.6 9.6 9.6 25.6 0 35.2l-54.4 54.4zM384 425.6c0 73.6 57.6 131.2 131.2 131.2s131.2-57.6 131.2-131.2-57.6-131.2-131.2-131.2-131.2 60.8-131.2 131.2z" />
<glyph unicode="&#xe924;" glyph-name="fenxijl-01" d="M336 681.6v214.4l-249.6-252.8h211.2c22.4 0 38.4 19.2 38.4 38.4zM841.6 905.6h-454.4v-224c0-48-41.6-89.6-89.6-89.6h-224v-518.4c0-54.4 41.6-96 96-96h672c54.4 0 96 41.6 96 96v736c0 54.4-41.6 96-96 96zM736 464c-9.6 0-16 3.2-22.4 6.4l-144-124.8c3.2-3.2 3.2-9.6 3.2-16 0-25.6-19.2-44.8-44.8-44.8s-44.8 19.2-44.8 44.8c0 6.4 3.2 12.8 6.4 19.2l-60.8 64c-6.4-3.2-12.8-3.2-19.2-3.2s-12.8 0-16 3.2l-67.2-76.8c3.2-6.4 6.4-12.8 6.4-22.4 0-25.6-19.2-44.8-44.8-44.8s-44.8 19.2-44.8 44.8 19.2 44.8 44.8 44.8c6.4 0 12.8 0 16-3.2l67.2 76.8c-3.2 6.4-6.4 12.8-6.4 22.4 0 25.6 19.2 44.8 44.8 44.8s44.8-19.2 44.8-44.8c0-6.4-3.2-12.8-6.4-19.2l60.8-64c6.4 3.2 12.8 3.2 19.2 3.2 9.6 0 16-3.2 22.4-6.4l144 124.8c-3.2 3.2-3.2 9.6-3.2 16 0 25.6 19.2 44.8 44.8 44.8s44.8-19.2 44.8-44.8c0-25.6-19.2-44.8-44.8-44.8z" />
<glyph unicode="&#xe925;" glyph-name="fenxijl" d="M848 912h-480c-9.6 0-16-3.2-22.4-9.6l-256-256c-6.4-6.4-9.6-12.8-9.6-22.4v-544c0-54.4 41.6-96 96-96h672c54.4 0 96 41.6 96 96v736c0 54.4-41.6 96-96 96zM342.4 809.6v-121.6c0-22.4-16-38.4-38.4-38.4h-121.6l160 160zM880 80c0-19.2-12.8-32-32-32h-672c-19.2 0-32 12.8-32 32v518.4h160c48 0 89.6 41.6 89.6 89.6v160h454.4c19.2 0 32-12.8 32-32v-736zM739.2 560c-25.6 0-44.8-19.2-44.8-44.8 0-6.4 0-9.6 3.2-16l-144-124.8c-6.4 3.2-16 6.4-22.4 6.4s-12.8 0-19.2-3.2l-60.8 64c3.2 6.4 6.4 12.8 6.4 19.2 0 25.6-19.2 44.8-44.8 44.8s-44.8-19.2-44.8-44.8c0-9.6 3.2-16 6.4-22.4l-67.2-76.8c-6.4 3.2-9.6 3.2-16 3.2-25.6 0-44.8-19.2-44.8-44.8s19.2-44.8 44.8-44.8c25.6 0 44.8 19.2 44.8 44.8 0 9.6-3.2 16-6.4 22.4l67.2 76.8c6.4-3.2 9.6-3.2 16-3.2s12.8 0 19.2 3.2l60.8-64c-3.2-6.4-6.4-12.8-6.4-19.2 0-25.6 19.2-44.8 44.8-44.8s44.8 19.2 44.8 44.8c0 6.4 0 9.6-3.2 16l144 124.8c6.4-3.2 16-6.4 22.4-6.4 25.6 0 44.8 19.2 44.8 44.8 3.2 22.4-19.2 44.8-44.8 44.8z" />
<glyph unicode="&#xe926;" glyph-name="tiaoz-01" d="M841.6 905.6h-454.4v-224c0-48-41.6-89.6-89.6-89.6h-224v-518.4c0-54.4 41.6-96 96-96h672c54.4 0 96 41.6 96 96v736c0 54.4-41.6 96-96 96zM771.2 272h-249.6c-9.6-28.8-38.4-51.2-70.4-51.2s-60.8 22.4-70.4 51.2h-89.6c-12.8 0-22.4 9.6-22.4 22.4s9.6 22.4 22.4 22.4h89.6c9.6 28.8 38.4 51.2 70.4 51.2s60.8-22.4 70.4-51.2h249.6c12.8 0 22.4-9.6 22.4-22.4s-9.6-22.4-22.4-22.4zM771.2 467.2h-89.6c-9.6-28.8-38.4-51.2-70.4-51.2s-60.8 22.4-70.4 51.2h-249.6c-12.8 0-22.4 9.6-22.4 22.4s9.6 22.4 22.4 22.4h249.6c9.6 28.8 38.4 51.2 70.4 51.2s60.8-22.4 70.4-51.2h89.6c12.8 0 22.4-9.6 22.4-22.4s-9.6-22.4-22.4-22.4zM336 681.6v214.4l-249.6-252.8h211.2c22.4 0 38.4 19.2 38.4 38.4z" />
<glyph unicode="&#xe927;" glyph-name="tiaoz" d="M848 912h-480c-9.6 0-16-3.2-22.4-9.6l-256-256c-6.4-6.4-9.6-12.8-9.6-22.4v-544c0-54.4 41.6-96 96-96h672c54.4 0 96 41.6 96 96v736c0 54.4-41.6 96-96 96zM342.4 809.6v-121.6c0-22.4-16-38.4-38.4-38.4h-121.6l160 160zM880 80c0-19.2-12.8-32-32-32h-672c-19.2 0-32 12.8-32 32v518.4h160c48 0 89.6 41.6 89.6 89.6v160h454.4c19.2 0 32-12.8 32-32v-736zM777.6 521.6h-92.8c-9.6 28.8-38.4 48-67.2 48s-57.6-19.2-67.2-48h-252.8c-12.8 0-25.6-12.8-25.6-25.6s12.8-25.6 25.6-25.6h252.8c9.6-28.8 38.4-48 67.2-48s57.6 19.2 67.2 48h92.8c12.8 0 25.6 12.8 25.6 25.6s-12.8 25.6-25.6 25.6zM777.6 323.2h-252.8c-9.6 28.8-38.4 48-67.2 48s-57.6-19.2-67.2-48h-92.8c-12.8 0-25.6-12.8-25.6-25.6s12.8-25.6 25.6-25.6h92.8c9.6-28.8 38.4-48 67.2-48s57.6 19.2 67.2 48h252.8c12.8 0 25.6 12.8 25.6 25.6s-12.8 25.6-25.6 25.6z" />
<glyph unicode="&#xe928;" glyph-name="fenxijl01-01" d="M841.6 905.6h-454.4v-224c0-48-41.6-89.6-89.6-89.6h-224v-518.4c0-54.4 41.6-96 96-96h672c54.4 0 96 41.6 96 96v736c0 54.4-41.6 96-96 96zM492.8 198.4c-89.6 0-169.6 76.8-169.6 169.6 0 86.4 67.2 160 153.6 166.4 9.6 0 16-6.4 16-16v-137.6c0-9.6 6.4-16 16-16h137.6c9.6 0 16-6.4 16-16-9.6-83.2-80-150.4-169.6-150.4zM684.8 403.2h-137.6c-9.6 0-16 6.4-16 16v137.6c0 9.6 6.4 16 16 16 80-6.4 144-70.4 150.4-150.4 3.2-12.8-6.4-19.2-12.8-19.2zM336 681.6v214.4l-249.6-252.8h211.2c22.4 0 38.4 19.2 38.4 38.4z" />
<glyph unicode="&#xe929;" glyph-name="fenxijl01" d="M646.4 364.8h-137.6c-9.6 0-16 6.4-16 16v137.6c0 9.6-6.4 16-16 16-86.4-6.4-153.6-80-153.6-166.4 0-89.6 76.8-169.6 169.6-169.6 86.4 0 160 67.2 166.4 153.6 3.2 6.4-3.2 12.8-12.8 12.8zM547.2 569.6c-9.6 0-16-6.4-16-16v-137.6c0-9.6 6.4-16 16-16h137.6c9.6 0 16 6.4 16 16-9.6 83.2-73.6 147.2-153.6 153.6zM848 912h-480c-9.6 0-16-3.2-22.4-9.6l-256-256c-6.4-6.4-9.6-12.8-9.6-22.4v-544c0-54.4 41.6-96 96-96h672c54.4 0 96 41.6 96 96v736c0 54.4-41.6 96-96 96zM342.4 809.6v-121.6c0-22.4-16-38.4-38.4-38.4h-121.6l160 160zM880 80c0-19.2-12.8-32-32-32h-672c-19.2 0-32 12.8-32 32v518.4h160c48 0 89.6 41.6 89.6 89.6v160h454.4c19.2 0 32-12.8 32-32v-736z" />
<glyph unicode="&#xe92a;" glyph-name="zhangdanjl-01" d="M720 643.2h211.2l-249.6 252.8v-211.2c0-22.4 16-41.6 38.4-41.6zM630.4 681.6v224h-454.4c-54.4 0-96-41.6-96-96v-736c0-54.4 41.6-96 96-96h672c54.4 0 96 41.6 96 96v518.4h-224c-48 0-89.6 41.6-89.6 89.6zM438.4 243.2c-12.8-12.8-38.4-19.2-73.6-22.4v-25.6c0-6.4-6.4-12.8-12.8-12.8h-9.6c-6.4 0-12.8 6.4-12.8 12.8v25.6c-28.8 0-51.2 9.6-64 22.4-16 12.8-22.4 35.2-22.4 64v6.4c0 6.4 6.4 12.8 12.8 12.8h57.6c6.4 0 12.8-6.4 12.8-12.8v-12.8c0-16 6.4-25.6 22.4-25.6 12.8 0 22.4 9.6 22.4 28.8 0 9.6-3.2 16-6.4 19.2s-6.4 6.4-12.8 9.6c-9.6 3.2-22.4 9.6-44.8 19.2s-32 16-41.6 25.6c-16 16-22.4 35.2-22.4 60.8 0 60.8 28.8 92.8 83.2 96v19.2c0 6.4 6.4 12.8 12.8 12.8h12.8c6.4 0 12.8-6.4 12.8-12.8v-19.2c35.2 0 60.8-12.8 73.6-28.8 9.6-12.8 16-28.8 16-54.4 0-3.2 0 0 0-9.6 0-6.4-6.4-12.8-12.8-12.8h-57.6c-6.4 0-12.8 6.4-12.8 12.8v12.8c0 16-6.4 25.6-19.2 25.6s-19.2-9.6-19.2-22.4c0-16 12.8-28.8 35.2-38.4 38.4-16 57.6-25.6 64-28.8 22.4-16 35.2-38.4 35.2-70.4-6.4-35.2-12.8-60.8-28.8-76.8zM761.6 220.8h-163.2c-12.8 0-25.6 12.8-25.6 25.6s12.8 25.6 25.6 25.6h163.2c12.8 0 25.6-12.8 25.6-25.6s-9.6-25.6-25.6-25.6zM787.2 393.6c0-12.8-12.8-25.6-25.6-25.6h-163.2c-12.8 0-25.6 12.8-25.6 25.6s12.8 25.6 25.6 25.6h163.2c16 0 25.6-9.6 25.6-25.6z" />
<glyph unicode="&#xe92b;" glyph-name="zhangdanjl" d="M768 310.4h-163.2c-12.8 0-25.6-12.8-25.6-25.6s12.8-25.6 25.6-25.6h163.2c12.8 0 25.6 12.8 25.6 25.6s-12.8 25.6-25.6 25.6zM768 457.6h-163.2c-12.8 0-25.6-12.8-25.6-25.6s12.8-25.6 25.6-25.6h163.2c12.8 0 25.6 12.8 25.6 25.6s-12.8 25.6-25.6 25.6zM432 428.8c-3.2 3.2-25.6 12.8-64 28.8-22.4 9.6-35.2 22.4-35.2 38.4s6.4 22.4 19.2 22.4c12.8 0 19.2-9.6 19.2-25.6v-12.8c0-6.4 6.4-12.8 12.8-12.8h57.6c6.4 0 12.8 6.4 12.8 12.8 0 9.6 0 6.4 0 9.6 0 22.4-6.4 41.6-16 54.4-12.8 19.2-38.4 28.8-73.6 28.8v19.2c0 6.4-6.4 12.8-12.8 12.8h-9.6c-6.4 0-12.8-6.4-12.8-12.8v-19.2c-54.4-3.2-83.2-35.2-83.2-96 0-25.6 6.4-44.8 22.4-60.8 6.4-6.4 22.4-16 41.6-25.6s35.2-16 44.8-19.2c6.4-3.2 12.8-6.4 12.8-9.6 3.2-3.2 6.4-9.6 6.4-19.2 0-19.2-6.4-28.8-22.4-28.8-12.8 0-22.4 9.6-22.4 25.6v12.8c0 6.4-6.4 12.8-12.8 12.8h-54.4c-6.4 0-12.8-6.4-12.8-12.8v-6.4c0-28.8 6.4-51.2 22.4-64 12.8-12.8 35.2-22.4 64-22.4v-25.6c0-6.4 6.4-12.8 12.8-12.8h9.6c6.4 0 12.8 6.4 12.8 12.8v25.6c35.2 0 57.6 9.6 73.6 22.4 16 16 25.6 41.6 25.6 76.8-3.2 28.8-16 54.4-38.4 70.4zM934.4 646.4l-256 256c-6.4 6.4-12.8 9.6-22.4 9.6h-480c-54.4 0-96-41.6-96-96v-736c0-54.4 41.6-96 96-96h672c54.4 0 96 41.6 96 96v544c0 9.6-3.2 16-9.6 22.4zM681.6 809.6l160-160h-121.6c-22.4 0-38.4 16-38.4 38.4v121.6zM848 48h-672c-19.2 0-32 12.8-32 32v736c0 19.2 12.8 32 32 32h454.4v-160c0-48 41.6-89.6 89.6-89.6h160v-518.4c0-19.2-12.8-32-32-32z" />
<glyph unicode="&#xe92c;" glyph-name="file-01" d="M630.4 681.6v224h-454.4c-54.4 0-96-41.6-96-96v-736c0-54.4 41.6-96 96-96h672c54.4 0 96 41.6 96 96v518.4h-224c-48 0-89.6 41.6-89.6 89.6zM697.6 224h-384c-12.8 0-25.6 9.6-25.6 25.6s12.8 25.6 25.6 25.6h384c12.8 0 25.6-12.8 25.6-25.6s-9.6-25.6-25.6-25.6zM697.6 400h-384c-12.8 0-25.6 12.8-25.6 25.6s12.8 25.6 25.6 25.6h384c12.8 0 25.6-12.8 25.6-25.6s-9.6-25.6-25.6-25.6zM720 643.2h211.2l-249.6 252.8v-211.2c0-22.4 16-41.6 38.4-41.6z" />
<glyph unicode="&#xe92d;" glyph-name="file" d="M704 457.6h-384c-12.8 0-25.6-12.8-25.6-25.6s12.8-25.6 25.6-25.6h384c12.8 0 25.6 12.8 25.6 25.6s-12.8 25.6-25.6 25.6zM704 278.4h-384c-12.8 0-25.6-12.8-25.6-25.6s12.8-25.6 25.6-25.6h384c12.8 0 25.6 12.8 25.6 25.6s-12.8 25.6-25.6 25.6zM934.4 646.4l-256 256c-6.4 6.4-12.8 9.6-22.4 9.6h-480c-54.4 0-96-41.6-96-96v-736c0-54.4 41.6-96 96-96h672c54.4 0 96 41.6 96 96v544c0 9.6-3.2 16-9.6 22.4zM681.6 809.6l160-160h-121.6c-22.4 0-38.4 16-38.4 38.4v121.6zM848 48h-672c-19.2 0-32 12.8-32 32v736c0 19.2 12.8 32 32 32h454.4v-160c0-48 41.6-89.6 89.6-89.6h160v-518.4c0-19.2-12.8-32-32-32z" />
<glyph unicode="&#xe92e;" glyph-name="shelve-01" d="M601.6 899.2c22.4 0 41.6-19.2 41.6-41.6s-19.2-41.6-41.6-41.6h-192c-22.4 0-41.6 19.2-41.6 41.6s19.2 41.6 41.6 41.6h192zM825.6 857.6h-150.4c0 0 0 0 0 0 0-41.6-32-73.6-73.6-73.6h-192c-41.6 0-73.6 32-73.6 73.6 0 0 0 0 0 0h-150.4c-54.4 0-96-41.6-96-96v-672c0-54.4 41.6-96 96-96h640c54.4 0 96 41.6 96 96v672c0 54.4-41.6 96-96 96zM697.6 256h-384c-12.8 0-25.6 9.6-25.6 25.6s12.8 25.6 25.6 25.6h384c12.8 0 25.6-12.8 25.6-25.6s-9.6-25.6-25.6-25.6zM697.6 400h-384c-12.8 0-25.6 12.8-25.6 25.6s12.8 25.6 25.6 25.6h384c12.8 0 25.6-12.8 25.6-25.6s-9.6-25.6-25.6-25.6zM697.6 544h-384c-12.8 0-25.6 12.8-25.6 25.6s12.8 25.6 25.6 25.6h384c12.8 0 25.6-12.8 25.6-25.6s-9.6-25.6-25.6-25.6z" />
<glyph unicode="&#xe92f;" glyph-name="shelve" d="M416 825.6h192c22.4 0 38.4 16 38.4 38.4s-16 38.4-38.4 38.4h-192c-22.4 0-38.4-16-38.4-38.4s16-38.4 38.4-38.4zM864 896h-96c-19.2 0-32-12.8-32-32s12.8-32 32-32h96c19.2 0 32-12.8 32-32v-704c0-19.2-12.8-32-32-32h-704c-19.2 0-32 12.8-32 32v704c0 19.2 12.8 32 32 32h96c19.2 0 32 12.8 32 32s-12.8 32-32 32h-96c-54.4 0-96-41.6-96-96v-704c0-54.4 41.6-96 96-96h704c54.4 0 96 41.6 96 96v704c0 54.4-41.6 96-96 96zM320 550.4h384c12.8 0 25.6 12.8 25.6 25.6s-12.8 25.6-25.6 25.6h-384c-12.8 0-25.6-12.8-25.6-25.6s12.8-25.6 25.6-25.6zM320 406.4h384c12.8 0 25.6 12.8 25.6 25.6s-12.8 25.6-25.6 25.6h-384c-12.8 0-25.6-12.8-25.6-25.6s12.8-25.6 25.6-25.6zM320 259.2h384c12.8 0 25.6 12.8 25.6 25.6s-12.8 25.6-25.6 25.6h-384c-12.8 0-25.6-12.8-25.6-25.6s12.8-25.6 25.6-25.6z" />
<glyph unicode="&#xe930;" glyph-name="chaxjil-01" d="M601.6 899.2c22.4 0 41.6-19.2 41.6-41.6s-19.2-41.6-41.6-41.6h-192c-22.4 0-41.6 19.2-41.6 41.6s19.2 41.6 41.6 41.6h192zM640 422.4c0-72.46-58.74-131.2-131.2-131.2s-131.2 58.74-131.2 131.2c0 72.46 58.74 131.2 131.2 131.2s131.2-58.74 131.2-131.2zM825.6 857.6h-150.4c0 0 0 0 0 0 0-41.6-32-73.6-73.6-73.6h-192c-41.6 0-73.6 32-73.6 73.6 0 0 0 0 0 0h-150.4c-54.4 0-96-41.6-96-96v-672c0-54.4 41.6-96 96-96h640c54.4 0 96 41.6 96 96v672c0 54.4-41.6 96-96 96zM704 224c-6.4-6.4-12.8-6.4-19.2-6.4s-12.8 3.2-19.2 6.4l-51.2 51.2c-32-22.4-67.2-35.2-108.8-35.2-99.2 0-182.4 83.2-182.4 182.4s83.2 182.4 182.4 182.4c99.2 0 182.4-83.2 182.4-182.4 0-41.6-12.8-80-38.4-108.8l51.2-51.2c12.8-12.8 12.8-28.8 3.2-38.4z" />
<glyph unicode="&#xe931;" glyph-name="chaxjil" d="M515.2 243.2c41.6 0 76.8 12.8 108.8 35.2l51.2-51.2c6.4-6.4 12.8-6.4 19.2-6.4s12.8 3.2 19.2 6.4c9.6 9.6 9.6 25.6 0 35.2l-51.2 51.2c22.4 32 38.4 67.2 38.4 108.8 0 99.2-83.2 182.4-182.4 182.4s-182.4-83.2-182.4-182.4 76.8-179.2 179.2-179.2zM515.2 556.8c73.6 0 131.2-57.6 131.2-131.2s-57.6-131.2-131.2-131.2-131.2 60.8-131.2 131.2 57.6 131.2 131.2 131.2zM416 822.4h192c22.4 0 41.6 19.2 41.6 41.6s-19.2 41.6-41.6 41.6h-192c-22.4 0-41.6-19.2-41.6-41.6s19.2-41.6 41.6-41.6zM864 896h-96c-19.2 0-32-12.8-32-32s12.8-32 32-32h96c19.2 0 32-12.8 32-32v-704c0-19.2-12.8-32-32-32h-704c-19.2 0-32 12.8-32 32v704c0 19.2 12.8 32 32 32h96c19.2 0 32 12.8 32 32s-12.8 32-32 32h-96c-54.4 0-96-41.6-96-96v-704c0-54.4 41.6-96 96-96h704c54.4 0 96 41.6 96 96v704c0 54.4-41.6 96-96 96z" />
<glyph unicode="&#xe932;" glyph-name="bianjjl-01" d="M601.6 899.2c22.4 0 41.6-19.2 41.6-41.6s-19.2-41.6-41.6-41.6h-192c-22.4 0-41.6 19.2-41.6 41.6s19.2 41.6 41.6 41.6h192zM825.6 857.6h-150.4c0 0 0 0 0 0 0-41.6-32-73.6-73.6-73.6h-192c-41.6 0-73.6 32-73.6 73.6 0 0 0 0 0 0h-150.4c-54.4 0-96-41.6-96-96v-672c0-54.4 41.6-96 96-96h640c54.4 0 96 41.6 96 96v672c0 54.4-41.6 96-96 96zM352 217.6c-9.6-3.2-19.2 6.4-16 16l28.8 105.6 96-96-108.8-25.6zM716.8 505.6l-236.8-236.8-96 96 236.8 236.8c9.6 9.6 22.4 9.6 32 0l64-64c9.6-9.6 9.6-22.4 0-32z" />
<glyph unicode="&#xe933;" glyph-name="bianjjl" d="M358.4 224l105.6 28.8-96 96-28.8-105.6c-3.2-12.8 9.6-22.4 19.2-19.2zM627.2 604.8l-236.8-236.8 96-96 236.8 236.8c9.6 9.6 9.6 22.4 0 32l-64 64c-9.6 9.6-22.4 9.6-32 0zM416 822.4h192c22.4 0 41.6 19.2 41.6 41.6s-19.2 41.6-41.6 41.6h-192c-22.4 0-41.6-19.2-41.6-41.6s19.2-41.6 41.6-41.6zM864 896h-96c-19.2 0-32-12.8-32-32s12.8-32 32-32h96c19.2 0 32-12.8 32-32v-704c0-19.2-12.8-32-32-32h-704c-19.2 0-32 12.8-32 32v704c0 19.2 12.8 32 32 32h96c19.2 0 32 12.8 32 32s-12.8 32-32 32h-96c-54.4 0-96-41.6-96-96v-704c0-54.4 41.6-96 96-96h704c54.4 0 96 41.6 96 96v704c0 54.4-41.6 96-96 96z" />
<glyph unicode="&#xe934;" glyph-name="wangong-01" d="M601.6 899.2c22.4 0 41.6-19.2 41.6-41.6s-19.2-41.6-41.6-41.6h-192c-22.4 0-41.6 19.2-41.6 41.6s19.2 41.6 41.6 41.6h192zM505.6 630.4c-121.6 0-220.8-99.2-220.8-220.8s99.2-220.8 220.8-220.8 220.8 99.2 220.8 220.8-99.2 220.8-220.8 220.8zM640 473.6l-134.4-134.4c-6.4-6.4-12.8-6.4-19.2-6.4s-12.8 3.2-19.2 6.4l-57.6 57.6c-9.6 9.6-9.6 25.6 0 35.2s25.6 9.6 35.2 0l38.4-38.4 118.4 118.4c9.6 9.6 25.6 9.6 35.2 0 12.8-12.8 12.8-28.8 3.2-38.4zM825.6 857.6h-150.4c0 0 0 0 0 0 0-41.6-32-73.6-73.6-73.6h-192c-41.6 0-73.6 32-73.6 73.6 0 0 0 0 0 0h-150.4c-54.4 0-96-41.6-96-96v-672c0-54.4 41.6-96 96-96h640c54.4 0 96 41.6 96 96v672c0 54.4-41.6 96-96 96zM505.6 150.4c-144 0-259.2 115.2-259.2 259.2s115.2 259.2 259.2 259.2 259.2-115.2 259.2-259.2-115.2-259.2-259.2-259.2z" />
<glyph unicode="&#xe935;" glyph-name="wangong" d="M416 822.4h192c22.4 0 41.6 19.2 41.6 41.6s-19.2 41.6-41.6 41.6h-192c-22.4 0-41.6-19.2-41.6-41.6s19.2-41.6 41.6-41.6zM864 896h-96c-19.2 0-32-12.8-32-32s12.8-32 32-32h96c19.2 0 32-12.8 32-32v-704c0-19.2-12.8-32-32-32h-704c-19.2 0-32 12.8-32 32v704c0 19.2 12.8 32 32 32h96c19.2 0 32 12.8 32 32s-12.8 32-32 32h-96c-54.4 0-96-41.6-96-96v-704c0-54.4 41.6-96 96-96h704c54.4 0 96 41.6 96 96v704c0 54.4-41.6 96-96 96zM512 192c140.8 0 256 115.2 256 256s-115.2 256-256 256-256-115.2-256-256 115.2-256 256-256zM512 640c105.6 0 192-86.4 192-192s-86.4-192-192-192-192 86.4-192 192 86.4 192 192 192zM467.2 371.2c6.4-6.4 12.8-9.6 22.4-9.6s16 3.2 22.4 9.6l134.4 134.4c12.8 12.8 12.8 32 0 44.8s-32 12.8-44.8 0l-112-112-35.2 35.2c-12.8 12.8-32 12.8-44.8 0s-12.8-32 0-44.8l57.6-57.6z" />
<glyph unicode="&#xe936;" glyph-name="shuju03-01" d="M601.6 899.2c22.4 0 41.6-19.2 41.6-41.6s-19.2-41.6-41.6-41.6h-192c-22.4 0-41.6 19.2-41.6 41.6s19.2 41.6 41.6 41.6h192zM825.6 857.6h-150.4c0 0 0 0 0 0 0-41.6-32-73.6-73.6-73.6h-192c-41.6 0-73.6 32-73.6 73.6 0 0 0 0 0 0h-150.4c-54.4 0-96-41.6-96-96v-672c0-54.4 41.6-96 96-96h640c54.4 0 96 41.6 96 96v672c0 54.4-41.6 96-96 96zM438.4 275.2c-12.8-12.8-38.4-19.2-73.6-22.4v-25.6c0-6.4-6.4-12.8-12.8-12.8h-9.6c-6.4 0-12.8 6.4-12.8 12.8v25.6c-28.8 0-51.2 9.6-64 22.4-16 12.8-22.4 35.2-22.4 64v6.4c0 6.4 6.4 12.8 12.8 12.8h57.6c6.4 0 12.8-6.4 12.8-12.8v-12.8c0-16 6.4-25.6 22.4-25.6 12.8 0 22.4 9.6 22.4 28.8 0 9.6-3.2 16-6.4 19.2s-6.4 6.4-12.8 9.6c-9.6 3.2-22.4 9.6-44.8 19.2s-32 16-41.6 25.6c-16 16-22.4 35.2-22.4 60.8 0 60.8 28.8 92.8 83.2 96v19.2c0 6.4 6.4 12.8 12.8 12.8h12.8c6.4 0 12.8-6.4 12.8-12.8v-19.2c35.2 0 60.8-12.8 73.6-28.8 9.6-12.8 16-28.8 16-54.4 0-3.2 0 0 0-9.6 0-6.4-6.4-12.8-12.8-12.8h-57.6c-6.4 0-12.8 6.4-12.8 12.8v12.8c0 16-6.4 25.6-19.2 25.6s-19.2-9.6-19.2-22.4c0-16 12.8-28.8 35.2-38.4 38.4-16 57.6-25.6 64-28.8 22.4-16 35.2-38.4 35.2-70.4-6.4-35.2-12.8-60.8-28.8-76.8zM761.6 220.8h-163.2c-12.8 0-25.6 12.8-25.6 25.6s12.8 25.6 25.6 25.6h163.2c12.8 0 25.6-12.8 25.6-25.6s-9.6-25.6-25.6-25.6zM761.6 368h-163.2c-12.8 0-25.6 12.8-25.6 25.6s12.8 25.6 25.6 25.6h163.2c12.8 0 25.6-12.8 25.6-25.6s-9.6-25.6-25.6-25.6zM761.6 515.2h-163.2c-12.8 0-25.6 12.8-25.6 25.6s12.8 25.6 25.6 25.6h163.2c12.8 0 25.6-12.8 25.6-25.6s-9.6-25.6-25.6-25.6z" />
<glyph unicode="&#xe937;" glyph-name="shuju03" d="M608 822.4h-192c-22.4 0-41.6 19.2-41.6 41.6s19.2 41.6 41.6 41.6h192c22.4 0 41.6-19.2 41.6-41.6s-19.2-41.6-41.6-41.6zM864 0h-704c-54.4 0-96 41.6-96 96v704c0 54.4 41.6 96 96 96h96c19.2 0 32-12.8 32-32s-12.8-32-32-32h-96c-19.2 0-32-12.8-32-32v-704c0-19.2 12.8-32 32-32h704c19.2 0 32 12.8 32 32v704c0 19.2-12.8 32-32 32h-96c-19.2 0-32 12.8-32 32s12.8 32 32 32h96c54.4 0 96-41.6 96-96v-704c0-54.4-41.6-96-96-96zM768 259.2h-163.2c-12.8 0-25.6 12.8-25.6 25.6s12.8 25.6 25.6 25.6h163.2c12.8 0 25.6-12.8 25.6-25.6s-12.8-25.6-25.6-25.6zM768 406.4h-163.2c-12.8 0-25.6 12.8-25.6 25.6s12.8 25.6 25.6 25.6h163.2c12.8 0 25.6-12.8 25.6-25.6s-12.8-25.6-25.6-25.6zM768 553.6h-163.2c-12.8 0-25.6 12.8-25.6 25.6s12.8 25.6 25.6 25.6h163.2c12.8 0 25.6-12.8 25.6-25.6s-12.8-25.6-25.6-25.6zM467.2 390.4c0-35.2-9.6-60.8-25.6-76.8-12.8-12.8-38.4-19.2-73.6-22.4v-25.6c0-6.4-6.4-12.8-12.8-12.8h-9.6c-6.4 0-12.8 6.4-12.8 12.8v25.6c-28.8 0-51.2 9.6-64 22.4-16 12.8-22.4 35.2-22.4 64v6.4c0 6.4 6.4 12.8 12.8 12.8h60.8c6.4 0 12.8-6.4 12.8-12.8v-12.8c0-16 6.4-25.6 22.4-25.6s22.4 9.6 22.4 28.8c0 9.6-3.2 16-6.4 19.2s-6.4 6.4-12.8 9.6c-9.6 3.2-22.4 9.6-44.8 19.2-19.2 9.6-32 16-41.6 25.6-16 16-22.4 35.2-22.4 60.8 0 60.8 28.8 92.8 83.2 96v19.2c0 6.4 6.4 12.8 12.8 12.8h9.6c6.4 0 12.8-6.4 12.8-12.8v-19.2c35.2 0 60.8-12.8 73.6-28.8 9.6-12.8 16-28.8 16-54.4 0-3.2 0 0 0-9.6 0-6.4-6.4-12.8-12.8-12.8h-57.6c-6.4 0-12.8 6.4-12.8 12.8v12.8c0 16-6.4 25.6-19.2 25.6s-19.2-9.6-19.2-22.4c0-16 12.8-28.8 35.2-38.4 38.4-16 57.6-25.6 64-28.8 19.2-16 32-41.6 32-70.4z" />
<glyph unicode="&#xe938;" glyph-name="shuju-01" d="M601.6 899.2c22.4 0 41.6-19.2 41.6-41.6s-19.2-41.6-41.6-41.6h-192c-22.4 0-41.6 19.2-41.6 41.6s19.2 41.6 41.6 41.6h192zM825.6 857.6h-150.4c0 0 0 0 0 0 0-41.6-32-73.6-73.6-73.6h-192c-41.6 0-73.6 32-73.6 73.6 0 0 0 0 0 0h-150.4c-54.4 0-96-41.6-96-96v-672c0-54.4 41.6-96 96-96h640c54.4 0 96 41.6 96 96v672c0 54.4-41.6 96-96 96zM531.2 684.8c0 9.6 6.4 16 16 16 80-6.4 144-70.4 150.4-150.4 0-9.6-6.4-16-16-16h-137.6c-9.6 0-16 6.4-16 16v134.4zM476.8 662.4c9.6 0 16-6.4 16-16v-137.6c0-9.6 6.4-16 16-16h137.6c9.6 0 16-6.4 16-16-6.4-86.4-80-153.6-166.4-153.6-89.6 0-169.6 76.8-169.6 169.6 0 89.6 67.2 160 150.4 169.6zM544 89.6h-288c-12.8 0-22.4 9.6-22.4 22.4s9.6 22.4 22.4 22.4h288c12.8 0 22.4-9.6 22.4-22.4s-9.6-22.4-22.4-22.4zM768 185.6h-512c-12.8 0-22.4 9.6-22.4 22.4s9.6 22.4 22.4 22.4h512c12.8 0 22.4-9.6 22.4-22.4s-9.6-22.4-22.4-22.4z" />
<glyph unicode="&#xe939;" glyph-name="shuju" d="M544 150.4h-288c-12.8 0-25.6 12.8-25.6 25.6s12.8 25.6 25.6 25.6h288c12.8 0 25.6-12.8 25.6-25.6s-12.8-25.6-25.6-25.6zM768 246.4h-512c-12.8 0-25.6 12.8-25.6 25.6s12.8 25.6 25.6 25.6h512c12.8 0 25.6-12.8 25.6-25.6s-12.8-25.6-25.6-25.6zM476.8 694.4c-86.4-6.4-153.6-80-153.6-166.4 0-89.6 76.8-169.6 169.6-169.6 86.4 0 160 67.2 166.4 153.6 0 9.6-6.4 16-16 16h-137.6c-9.6 0-16 6.4-16 16v134.4c3.2 9.6-3.2 16-12.8 16zM531.2 716.8v-137.6c0-9.6 6.4-16 16-16h137.6c9.6 0 16 6.4 16 16-6.4 80-70.4 144-150.4 150.4-12.8 3.2-19.2-6.4-19.2-12.8zM608 822.4h-192c-22.4 0-41.6 19.2-41.6 41.6s19.2 41.6 41.6 41.6h192c22.4 0 41.6-19.2 41.6-41.6s-19.2-41.6-41.6-41.6zM864 0h-704c-54.4 0-96 41.6-96 96v704c0 54.4 41.6 96 96 96h96c19.2 0 32-12.8 32-32s-12.8-32-32-32h-96c-19.2 0-32-12.8-32-32v-704c0-19.2 12.8-32 32-32h704c19.2 0 32 12.8 32 32v704c0 19.2-12.8 32-32 32h-96c-19.2 0-32 12.8-32 32s12.8 32 32 32h96c54.4 0 96-41.6 96-96v-704c0-54.4-41.6-96-96-96z" />
<glyph unicode="&#xe93a;" glyph-name="shuju01-01" d="M601.6 899.2c22.4 0 41.6-19.2 41.6-41.6s-19.2-41.6-41.6-41.6h-192c-22.4 0-41.6 19.2-41.6 41.6s19.2 41.6 41.6 41.6h192zM825.6 857.6h-150.4c0 0 0 0 0 0 0-41.6-32-73.6-73.6-73.6h-192c-41.6 0-73.6 32-73.6 73.6 0 0 0 0 0 0h-150.4c-54.4 0-96-41.6-96-96v-672c0-54.4 41.6-96 96-96h640c54.4 0 96 41.6 96 96v672c0 54.4-41.6 96-96 96zM284.8 476.8c6.4 0 12.8 0 16-3.2l67.2 76.8c-3.2 6.4-6.4 12.8-6.4 22.4 0 25.6 19.2 44.8 44.8 44.8s44.8-19.2 44.8-44.8c0-6.4-3.2-12.8-6.4-19.2l60.8-64c6.4 3.2 12.8 3.2 19.2 3.2 9.6 0 16-3.2 22.4-6.4l144 124.8c-3.2 3.2-3.2 9.6-3.2 16 0 25.6 19.2 44.8 44.8 44.8s44.8-19.2 44.8-44.8c0-25.6-19.2-44.8-44.8-44.8-9.6 0-16 3.2-22.4 6.4l-144-124.8c3.2-3.2 3.2-9.6 3.2-16 0-25.6-19.2-44.8-44.8-44.8s-44.8 19.2-44.8 44.8c0 6.4 3.2 12.8 6.4 19.2l-60.8 64c-6.4-3.2-12.8-3.2-19.2-3.2s-12.8 0-16 3.2l-67.2-76.8c3.2-6.4 6.4-12.8 6.4-22.4 0-25.6-19.2-44.8-44.8-44.8s-44.8 19.2-44.8 44.8 19.2 44.8 44.8 44.8zM544 89.6h-288c-12.8 0-22.4 9.6-22.4 22.4s9.6 22.4 22.4 22.4h288c12.8 0 22.4-9.6 22.4-22.4s-9.6-22.4-22.4-22.4zM768 185.6h-512c-12.8 0-22.4 9.6-22.4 22.4s9.6 22.4 22.4 22.4h512c12.8 0 22.4-9.6 22.4-22.4s-9.6-22.4-22.4-22.4z" />
<glyph unicode="&#xe93b;" glyph-name="shuju01" d="M544 150.4h-288c-12.8 0-25.6 12.8-25.6 25.6s12.8 25.6 25.6 25.6h288c12.8 0 25.6-12.8 25.6-25.6s-12.8-25.6-25.6-25.6zM768 246.4h-512c-12.8 0-25.6 12.8-25.6 25.6s12.8 25.6 25.6 25.6h512c12.8 0 25.6-12.8 25.6-25.6s-12.8-25.6-25.6-25.6zM739.2 611.2c-9.6 0-16 3.2-22.4 6.4l-144-124.8c3.2-3.2 3.2-9.6 3.2-16 0-25.6-19.2-44.8-44.8-44.8s-44.8 19.2-44.8 44.8c0 6.4 3.2 12.8 6.4 19.2l-60.8 64c-6.4-3.2-12.8-3.2-19.2-3.2s-12.8 0-16 3.2l-67.2-76.8c3.2-6.4 6.4-12.8 6.4-22.4 0-25.6-19.2-44.8-44.8-44.8s-44.8 19.2-44.8 44.8 19.2 44.8 44.8 44.8c6.4 0 12.8 0 16-3.2l67.2 76.8c-3.2 6.4-6.4 12.8-6.4 22.4 0 25.6 19.2 44.8 44.8 44.8s44.8-19.2 44.8-44.8c0-6.4-3.2-12.8-6.4-19.2l60.8-64c6.4 3.2 12.8 3.2 19.2 3.2 9.6 0 16-3.2 22.4-6.4l144 124.8c-3.2 3.2-3.2 9.6-3.2 16 0 25.6 19.2 44.8 44.8 44.8s44.8-19.2 44.8-44.8c3.2-25.6-19.2-44.8-44.8-44.8zM608 822.4h-192c-22.4 0-41.6 19.2-41.6 41.6s19.2 41.6 41.6 41.6h192c22.4 0 41.6-19.2 41.6-41.6s-19.2-41.6-41.6-41.6zM864 0h-704c-54.4 0-96 41.6-96 96v704c0 54.4 41.6 96 96 96h96c19.2 0 32-12.8 32-32s-12.8-32-32-32h-96c-19.2 0-32-12.8-32-32v-704c0-19.2 12.8-32 32-32h704c19.2 0 32 12.8 32 32v704c0 19.2-12.8 32-32 32h-96c-19.2 0-32 12.8-32 32s12.8 32 32 32h96c54.4 0 96-41.6 96-96v-704c0-54.4-41.6-96-96-96z" />
<glyph unicode="&#xe93c;" glyph-name="shuju02-01" d="M601.6 899.2c22.4 0 41.6-19.2 41.6-41.6s-19.2-41.6-41.6-41.6h-192c-22.4 0-41.6 19.2-41.6 41.6s19.2 41.6 41.6 41.6h192zM825.6 857.6h-150.4c0 0 0 0 0 0 0-41.6-32-73.6-73.6-73.6h-192c-41.6 0-73.6 32-73.6 73.6 0 0 0 0 0 0h-150.4c-54.4 0-96-41.6-96-96v-672c0-54.4 41.6-96 96-96h640c54.4 0 96 41.6 96 96v672c0 54.4-41.6 96-96 96zM672 640h64v-288h-64v288zM544 448h64v-96h-64v96zM416 608h64v-256h-64v256zM288 480h64v-128h-64v128zM544 89.6h-288c-12.8 0-22.4 9.6-22.4 22.4s9.6 22.4 22.4 22.4h288c12.8 0 22.4-9.6 22.4-22.4s-9.6-22.4-22.4-22.4zM768 185.6h-512c-12.8 0-22.4 9.6-22.4 22.4s9.6 22.4 22.4 22.4h512c12.8 0 22.4-9.6 22.4-22.4s-9.6-22.4-22.4-22.4z" />
<glyph unicode="&#xe93d;" glyph-name="shuju02" d="M288 544h64v-128h-64v128zM416 672h64v-256h-64v256zM544 512h64v-96h-64v96zM672 704h64v-288h-64v288zM544 150.4h-288c-12.8 0-25.6 12.8-25.6 25.6s12.8 25.6 25.6 25.6h288c12.8 0 25.6-12.8 25.6-25.6s-12.8-25.6-25.6-25.6zM768 246.4h-512c-12.8 0-25.6 12.8-25.6 25.6s12.8 25.6 25.6 25.6h512c12.8 0 25.6-12.8 25.6-25.6s-12.8-25.6-25.6-25.6zM608 822.4h-192c-22.4 0-41.6 19.2-41.6 41.6s19.2 41.6 41.6 41.6h192c22.4 0 41.6-19.2 41.6-41.6s-19.2-41.6-41.6-41.6zM864 0h-704c-54.4 0-96 41.6-96 96v704c0 54.4 41.6 96 96 96h96c19.2 0 32-12.8 32-32s-12.8-32-32-32h-96c-19.2 0-32-12.8-32-32v-704c0-19.2 12.8-32 32-32h704c19.2 0 32 12.8 32 32v704c0 19.2-12.8 32-32 32h-96c-19.2 0-32 12.8-32 32s12.8 32 32 32h96c54.4 0 96-41.6 96-96v-704c0-54.4-41.6-96-96-96z" />
<glyph unicode="&#xe93e;" glyph-name="qushi-01" d="M960 684.8c-9.6 6.4-22.4 6.4-32 0l-483.2-300.8-137.6 76.8c-12.8 6.4-25.6 6.4-35.2-3.2l-195.2-160c-6.4-6.4-12.8-16-12.8-25.6v-272c0-19.2 12.8-32 32-32h848c19.2 0 32 12.8 32 32v656c0 9.6-6.4 22.4-16 28.8zM281.6 64c0-12.8-12.8-25.6-25.6-25.6s-25.6 12.8-25.6 25.6v224c0 12.8 12.8 25.6 25.6 25.6s25.6-12.8 25.6-25.6v-224zM454.4 64c0-12.8-12.8-25.6-25.6-25.6s-25.6 12.8-25.6 25.6v96c0 12.8 12.8 25.6 25.6 25.6s25.6-12.8 25.6-25.6v-96zM624 64c0-12.8-12.8-25.6-25.6-25.6s-25.6 12.8-25.6 25.6v160c0 12.8 12.8 25.6 25.6 25.6s25.6-12.8 25.6-25.6v-160zM793.6 64c0-12.8-12.8-25.6-25.6-25.6s-25.6 12.8-25.6 25.6v352c0 12.8 12.8 25.6 25.6 25.6s25.6-12.8 25.6-25.6v-352zM928 928h-128c-19.2 0-32-12.8-32-32s12.8-32 32-32h51.2l-403.2-281.6-112 80c-12.8 9.6-28.8 6.4-38.4 0l-230.4-182.4c-12.8-9.6-16-32-6.4-44.8 6.4-6.4 16-12.8 25.6-12.8 6.4 0 12.8 3.2 19.2 6.4l211.2 166.4 112-76.8c9.6-6.4 25.6-6.4 35.2 0l432 297.6v-48c0-19.2 12.8-32 32-32s32 12.8 32 32v128c0 16-12.8 32-32 32z" />
<glyph unicode="&#xe93f;" glyph-name="qushi-02" d="M160 512c0 6.4 0 9.6-3.2 16l102.4 86.4c9.6-3.2 19.2-6.4 28.8-6.4 16 0 28.8 6.4 41.6 16l86.4-44.8c0 0 0 0 0-3.2 0-35.2 28.8-64 64-64s64 28.8 64 64c0 3.2 0 6.4 0 6.4l316.8 195.2c9.6-6.4 22.4-9.6 35.2-9.6 35.2 0 64 28.8 64 64s-28.8 64-64 64-64-28.8-64-64c0-3.2 0-6.4 0-9.6l-316.8-195.2c-9.6 9.6-22.4 12.8-35.2 12.8-16 0-32-6.4-41.6-16l-86.4 44.8c0 0 0 3.2 0 3.2 0 35.2-28.8 64-64 64s-64-28.8-64-64c0-6.4 0-12.8 3.2-19.2l-102.4-86.4c-6.4 6.4-19.2 9.6-28.8 9.6-35.2 0-64-28.8-64-64s28.8-64 64-64 64 28.8 64 64zM960 684.8c-9.6 6.4-22.4 6.4-32 0l-483.2-300.8-137.6 76.8c-12.8 6.4-25.6 6.4-35.2-3.2l-195.2-160c-6.4-6.4-12.8-16-12.8-25.6v-272c0-19.2 12.8-32 32-32h848c19.2 0 32 12.8 32 32v656c0 9.6-6.4 22.4-16 28.8zM281.6 64c0-12.8-12.8-25.6-25.6-25.6s-25.6 12.8-25.6 25.6v224c0 12.8 12.8 25.6 25.6 25.6s25.6-12.8 25.6-25.6v-224zM454.4 64c0-12.8-12.8-25.6-25.6-25.6s-25.6 12.8-25.6 25.6v96c0 12.8 12.8 25.6 25.6 25.6s25.6-12.8 25.6-25.6v-96zM624 64c0-12.8-12.8-25.6-25.6-25.6s-25.6 12.8-25.6 25.6v160c0 12.8 12.8 25.6 25.6 25.6s25.6-12.8 25.6-25.6v-160zM793.6 64c0-12.8-12.8-25.6-25.6-25.6s-25.6 12.8-25.6 25.6v352c0 12.8 12.8 25.6 25.6 25.6s25.6-12.8 25.6-25.6v-352z" />
<glyph unicode="&#xe940;" glyph-name="qushi" d="M976 57.6h-854.4v739.2c0 12.8-12.8 25.6-25.6 25.6s-25.6-12.8-25.6-25.6v-764.8c0-12.8 12.8-25.6 25.6-25.6h880c12.8 0 25.6 12.8 25.6 25.6s-12.8 25.6-25.6 25.6zM192 348.8c6.4 0 16 3.2 22.4 9.6l265.6 240 105.6-108.8c6.4-6.4 12.8-9.6 22.4-9.6 0 0 0 0 0 0 9.6 0 16 3.2 22.4 9.6l233.6 233.6v-51.2c0-19.2 12.8-32 32-32s32 12.8 32 32v128c0 0 0 0 0 3.2s0 6.4-3.2 9.6c-3.2 3.2-3.2 6.4-6.4 9.6 0 0 0 0 0 0v0c-3.2 3.2-6.4 6.4-9.6 6.4-3.2 3.2-9.6 3.2-12.8 3.2 0 0 0 0 0 0h-128c-19.2 0-32-12.8-32-32s12.8-32 32-32h51.2l-211.2-211.2-105.6 105.6c-12.8 12.8-32 12.8-44.8 0l-288-259.2c-12.8-12.8-12.8-32-3.2-44.8 6.4-3.2 16-9.6 25.6-9.6zM217.6 208v-64c0-22.4 16-38.4 38.4-38.4s38.4 16 38.4 38.4v64c0 22.4-16 38.4-38.4 38.4s-38.4-19.2-38.4-38.4zM448 438.4c-22.4 0-38.4-16-38.4-38.4v-256c0-22.4 16-38.4 38.4-38.4s38.4 16 38.4 38.4v256c0 22.4-16 38.4-38.4 38.4zM601.6 304v-160c0-22.4 16-38.4 38.4-38.4s38.4 16 38.4 38.4v160c0 22.4-16 38.4-38.4 38.4s-38.4-16-38.4-38.4zM832 566.4c-22.4 0-38.4-16-38.4-38.4v-384c0-22.4 16-38.4 38.4-38.4s38.4 16 38.4 38.4v384c0 22.4-16 38.4-38.4 38.4z" />
<glyph unicode="&#xe941;" glyph-name="biaobao-01" d="M976 896h-928c-19.2 0-32-12.8-32-32v-64c0-19.2 12.8-32 32-32h928c19.2 0 32 12.8 32 32v64c0 19.2-12.8 32-32 32zM64 64c0-19.2 12.8-32 32-32h406.4v-19.2c-12.8-3.2-22.4-16-22.4-28.8 0-19.2 12.8-32 32-32s32 12.8 32 32c0 12.8-9.6 25.6-22.4 28.8v19.2h406.4c19.2 0 32 12.8 32 32v652.8h-896v-652.8zM720 617.6c0 3.2 3.2 6.4 6.4 6.4 48-3.2 86.4-41.6 89.6-89.6 0-3.2-3.2-6.4-6.4-6.4h-83.2c-3.2 0-6.4 3.2-6.4 6.4v83.2zM681.6 592c3.2 0 6.4-3.2 6.4-6.4v-83.2c0-3.2 3.2-6.4 6.4-6.4h83.2c3.2 0 6.4-3.2 6.4-6.4-3.2-57.6-57.6-102.4-118.4-86.4-35.2 6.4-64 35.2-70.4 70.4-12.8 60.8 28.8 115.2 86.4 118.4zM566.4 323.2h262.4v-38.4h-262.4v38.4zM566.4 224h150.4v-38.4h-150.4v38.4zM416 400h64v-208h-64v208zM304 608h64v-416h-64v416zM192 480h64v-288h-64v288z" />
<glyph unicode="&#xe942;" glyph-name="biaobao" d="M976 896h-928c-19.2 0-32-12.8-32-32v-128c0-19.2 12.8-32 32-32h16v-640c0-19.2 12.8-32 32-32h406.4v-19.2c-12.8-3.2-22.4-16-22.4-28.8 0-19.2 12.8-32 32-32s32 12.8 32 32c0 12.8-9.6 25.6-22.4 28.8v19.2h406.4c19.2 0 32 12.8 32 32v640h16c19.2 0 32 12.8 32 32v128c0 19.2-12.8 32-32 32zM80 832h864v-64h-864v64zM896 96h-768v608h768v-608zM585.6 278.4h224c12.8 0 25.6 12.8 25.6 25.6s-12.8 25.6-25.6 25.6h-224c-12.8 0-25.6-12.8-25.6-25.6s12.8-25.6 25.6-25.6zM585.6 179.2h112c12.8 0 25.6 12.8 25.6 25.6s-12.8 25.6-25.6 25.6h-112c-12.8 0-25.6-12.8-25.6-25.6s12.8-25.6 25.6-25.6zM726.4 528h83.2c3.2 0 6.4 3.2 6.4 6.4-3.2 48-41.6 86.4-89.6 89.6-3.2 0-6.4-3.2-6.4-6.4v-83.2c0-3.2 3.2-6.4 6.4-6.4zM665.6 403.2c60.8-12.8 115.2 28.8 118.4 86.4 0 3.2-3.2 6.4-6.4 6.4h-83.2c-3.2 0-6.4 3.2-6.4 6.4v83.2c0 3.2-3.2 6.4-6.4 6.4-57.6-3.2-102.4-57.6-86.4-118.4 6.4-35.2 35.2-64 70.4-70.4zM192 480h64v-288h-64v288zM304 608h64v-416h-64v416zM416 400h64v-208h-64v208z" />
<glyph unicode="&#xe943;" glyph-name="biaobao01-01" d="M976 896h-928c-19.2 0-32-12.8-32-32v-64c0-19.2 12.8-32 32-32h928c19.2 0 32 12.8 32 32v64c0 19.2-12.8 32-32 32zM64 64c0-19.2 12.8-32 32-32h406.4v-19.2c-12.8-3.2-22.4-16-22.4-28.8 0-19.2 12.8-32 32-32s32 12.8 32 32c0 12.8-9.6 25.6-22.4 28.8v19.2h406.4c19.2 0 32 12.8 32 32v652.8h-896v-652.8zM716.8 185.6h-150.4v38.4h150.4v-38.4zM828.8 284.8h-262.4v38.4h262.4v-38.4zM560 486.4c6.4 0 9.6 0 12.8-3.2l35.2 32c0 3.2-3.2 6.4-3.2 9.6 0 19.2 12.8 32 32 32s32-12.8 32-32c0-3.2 0-9.6-3.2-12.8l25.6-25.6c3.2 0 6.4 3.2 9.6 3.2s9.6 0 12.8-3.2l86.4 86.4c0 3.2-3.2 6.4-3.2 12.8 0 19.2 12.8 32 32 32s32-12.8 32-32c0-19.2-12.8-32-32-32-3.2 0-9.6 0-12.8 3.2l-86.4-86.4c0-3.2 3.2-6.4 3.2-12.8 0-19.2-12.8-32-32-32s-32 12.8-32 32c0 3.2 0 9.6 3.2 12.8l-25.6 25.6c-3.2 0-6.4-3.2-9.6-3.2-6.4 0-9.6 0-12.8 3.2l-35.2-32c0-3.2 3.2-6.4 3.2-9.6 0-19.2-12.8-32-32-32s-32 12.8-32 32 16 32 32 32zM416 400h64v-208h-64v208zM304 608h64v-416h-64v416zM192 480h64v-288h-64v288z" />
<glyph unicode="&#xe944;" glyph-name="biaobao01" d="M976 896h-928c-19.2 0-32-12.8-32-32v-128c0-19.2 12.8-32 32-32h16v-640c0-19.2 12.8-32 32-32h406.4v-19.2c-12.8-3.2-22.4-16-22.4-28.8 0-19.2 12.8-32 32-32s32 12.8 32 32c0 12.8-9.6 25.6-22.4 28.8v19.2h406.4c19.2 0 32 12.8 32 32v640h16c19.2 0 32 12.8 32 32v128c0 19.2-12.8 32-32 32zM80 832h864v-64h-864v64zM896 96h-768v608h768v-608zM809.6 329.6h-224c-12.8 0-25.6-12.8-25.6-25.6s12.8-25.6 25.6-25.6h224c12.8 0 25.6 12.8 25.6 25.6s-9.6 25.6-25.6 25.6zM697.6 230.4h-112c-12.8 0-25.6-12.8-25.6-25.6s12.8-25.6 25.6-25.6h112c12.8 0 25.6 12.8 25.6 25.6s-9.6 25.6-25.6 25.6zM192 480h64v-288h-64v288zM304 608h64v-416h-64v416zM416 400h64v-208h-64v208zM560 422.4c19.2 0 32 12.8 32 32 0 0 0 3.2 0 3.2l41.6 35.2c3.2 0 6.4-3.2 9.6-3.2s3.2 0 6.4 0l28.8-28.8c0-3.2 0-6.4 0-6.4 0-19.2 12.8-32 32-32s32 12.8 32 32c0 3.2 0 3.2 0 6.4l92.8 89.6c3.2 0 3.2 0 6.4 0 19.2 0 32 12.8 32 32s-12.8 32-32 32-32-12.8-32-32c0-6.4 3.2-9.6 3.2-16l-86.4-83.2c-3.2 3.2-9.6 3.2-16 3.2s-9.6-3.2-16-3.2l-22.4 25.6c3.2 6.4 6.4 9.6 6.4 16 0 19.2-12.8 32-32 32s-32-12.8-32-32c0-6.4 0-9.6 3.2-12.8l-38.4-32c-6.4 3.2-9.6 6.4-19.2 6.4-19.2 0-32-12.8-32-32s16-32 32-32z" />
<glyph unicode="&#xe945;" glyph-name="biaobao02-01" d="M976 896h-928c-19.2 0-32-12.8-32-32v-64c0-19.2 12.8-32 32-32h928c19.2 0 32 12.8 32 32v64c0 19.2-12.8 32-32 32zM64 64c0-19.2 12.8-32 32-32h406.4v-19.2c-12.8-3.2-22.4-16-22.4-28.8 0-19.2 12.8-32 32-32s32 12.8 32 32c0 12.8-9.6 25.6-22.4 28.8v19.2h406.4c19.2 0 32 12.8 32 32v652.8h-896v-652.8zM720 128h-64v256h64v-256zM832 128h-64v80h64v-80zM620.8 627.2h198.4v-38.4h-198.4v38.4zM620.8 531.2h102.4v-38.4h-102.4v38.4zM608 128h-64v192h64v-192zM243.2 496c6.4 0 9.6 0 12.8-3.2l35.2 32c0 3.2-3.2 6.4-3.2 9.6 0 19.2 12.8 32 32 32s32-12.8 32-32c0-3.2 0-9.6-3.2-12.8l25.6-25.6c3.2 0 6.4 3.2 9.6 3.2s9.6 0 12.8-3.2l86.4 86.4c0 3.2-3.2 6.4-3.2 12.8 0 19.2 12.8 32 32 32s32-12.8 32-32c0-19.2-12.8-32-32-32-3.2 0-6.4 0-12.8 3.2l-86.4-86.4c0-3.2 3.2-6.4 3.2-9.6 0-19.2-12.8-32-32-32s-32 12.8-32 32c0 6.4 0 9.6 3.2 12.8l-25.6 25.6c-3.2 0-6.4-3.2-9.6-3.2-6.4 0-9.6 0-12.8 3.2l-35.2-32c0-3.2 3.2-6.4 3.2-9.6 0-19.2-12.8-32-32-32s-32 12.8-32 32c0 16 16 28.8 32 28.8zM188.8 310.4h294.4v-38.4h-294.4v38.4zM188.8 211.2h182.4v-38.4h-182.4v38.4z" />
<glyph unicode="&#xe946;" glyph-name="biaobao02" d="M208 265.6h256c12.8 0 25.6 12.8 25.6 25.6s-12.8 25.6-25.6 25.6h-256c-12.8 0-25.6-12.8-25.6-25.6s12.8-25.6 25.6-25.6zM208 166.4h144c12.8 0 25.6 12.8 25.6 25.6s-12.8 25.6-25.6 25.6h-144c-12.8 0-25.6-12.8-25.6-25.6s12.8-25.6 25.6-25.6zM640 582.4h160c12.8 0 25.6 12.8 25.6 25.6s-12.8 25.6-25.6 25.6h-160c-12.8 0-25.6-12.8-25.6-25.6s12.8-25.6 25.6-25.6zM640 486.4h64c12.8 0 25.6 12.8 25.6 25.6s-12.8 25.6-25.6 25.6h-64c-12.8 0-25.6-12.8-25.6-25.6s12.8-25.6 25.6-25.6zM976 896h-928c-19.2 0-32-12.8-32-32v-128c0-19.2 12.8-32 32-32h16v-640c0-19.2 12.8-32 32-32h406.4v-19.2c-12.8-3.2-22.4-16-22.4-28.8 0-19.2 12.8-32 32-32s32 12.8 32 32c0 12.8-9.6 25.6-22.4 28.8v19.2h406.4c19.2 0 32 12.8 32 32v640h16c19.2 0 32 12.8 32 32v128c0 19.2-12.8 32-32 32zM80 832h864v-64h-864v64zM896 96h-768v608h768v-608zM243.2 432c19.2 0 32 12.8 32 32 0 0 0 3.2 0 3.2l41.6 35.2c3.2 0 6.4-3.2 9.6-3.2s3.2 0 6.4 0l28.8-28.8c0-3.2 0-6.4 0-6.4 0-19.2 12.8-32 32-32s32 12.8 32 32c0 3.2 0 3.2 0 6.4l92.8 89.6c3.2 0 3.2 0 6.4 0 19.2 0 32 12.8 32 32s-12.8 32-32 32-32-12.8-32-32c0-6.4 3.2-9.6 3.2-16l-86.4-83.2c-3.2 3.2-9.6 3.2-16 3.2s-9.6-3.2-16-3.2l-25.6 25.6c3.2 6.4 6.4 9.6 6.4 16 0 19.2-12.8 32-32 32s-32-12.8-32-32c0-6.4 0-9.6 3.2-12.8l-35.2-28.8c-6.4 3.2-9.6 6.4-19.2 6.4-19.2 0-32-12.8-32-32s16-35.2 32-35.2zM544 320h64v-192h-64v192zM656 384h64v-256h-64v256zM768 208h64v-80h-64v80z" />
<glyph unicode="&#xe947;" glyph-name="fenxi-01" d="M992 864c0 19.2-12.8 32-32 32h-896c-19.2 0-32-12.8-32-32v-102.4h960v102.4zM144 800c-9.6 0-16 6.4-16 16s6.4 16 16 16 16-6.4 16-16c0-9.6-6.4-16-16-16zM208 800c-9.6 0-16 6.4-16 16s6.4 16 16 16c9.6 0 16-6.4 16-16s-6.4-16-16-16zM272 800c-9.6 0-16 6.4-16 16s6.4 16 16 16 16-6.4 16-16c0-9.6-6.4-16-16-16zM32 32c0-19.2 12.8-32 32-32h896c19.2 0 32 12.8 32 32v678.4h-960v-678.4zM371.2 140.8h-214.4v38.4h214.4v-38.4zM483.2 240h-326.4v38.4h326.4v-38.4zM873.6 256h-99.2c-3.2 0-6.4 3.2-6.4 6.4v99.2c0 3.2 3.2 6.4 6.4 6.4 54.4-3.2 99.2-48 102.4-105.6 3.2-3.2 0-6.4-3.2-6.4zM652.8 595.2h198.4v-38.4h-198.4v38.4zM652.8 499.2h102.4v-38.4h-102.4v38.4zM729.6 336c3.2 0 6.4-3.2 6.4-6.4v-99.2c0-3.2 3.2-6.4 6.4-6.4h99.2c3.2 0 6.4-3.2 6.4-6.4-3.2-67.2-67.2-118.4-137.6-102.4-41.6 9.6-73.6 41.6-83.2 83.2-16 70.4 35.2 134.4 102.4 137.6zM176 464c3.2 0 9.6 0 12.8-3.2l54.4 54.4c0 3.2-3.2 6.4-3.2 12.8 0 19.2 12.8 32 32 32s32-12.8 32-32c0-3.2 0-3.2 0-6.4l48-32c6.4 3.2 9.6 6.4 16 6.4s9.6-3.2 16-3.2l115.2 92.8c0 3.2-3.2 6.4-3.2 6.4 0 19.2 12.8 32 32 32s32-12.8 32-32-12.8-32-32-32c-6.4 0-9.6 3.2-16 3.2l-115.2-92.8c0-3.2 3.2-6.4 3.2-6.4 0-19.2-12.8-32-32-32s-32 12.8-32 32c0 3.2 0 3.2 0 6.4l-48 32c-6.4-3.2-9.6-6.4-16-6.4-3.2 0-9.6 0-12.8 3.2l-54.4-54.4c0-3.2 3.2-6.4 3.2-12.8 0-19.2-12.8-32-32-32s-32 12.8-32 32c0 19.2 12.8 32 32 32z" />
<glyph unicode="&#xe948;" glyph-name="fenxi" d="M960 896h-896c-19.2 0-32-12.8-32-32v-832c0-19.2 12.8-32 32-32h896c19.2 0 32 12.8 32 32v832c0 19.2-12.8 32-32 32zM928 832v-96h-832v96h832zM96 64v608h832v-608h-832zM160 784c0-8.837-7.163-16-16-16s-16 7.163-16 16c0 8.837 7.163 16 16 16s16-7.163 16-16zM224 784c0-8.837-7.163-16-16-16s-16 7.163-16 16c0 8.837 7.163 16 16 16s16-7.163 16-16zM288 784c0-8.837-7.163-16-16-16s-16 7.163-16 16c0 8.837 7.163 16 16 16s16-7.163 16-16zM464 284.8h-288c-12.8 0-25.6-12.8-25.6-25.6s12.8-25.6 25.6-25.6h288c12.8 0 25.6 12.8 25.6 25.6s-12.8 25.6-25.6 25.6zM352 185.6h-176c-12.8 0-25.6-12.8-25.6-25.6s12.8-25.6 25.6-25.6h176c12.8 0 25.6 12.8 25.6 25.6s-12.8 25.6-25.6 25.6zM528 624c-19.2 0-32-12.8-32-32 0-3.2 0-6.4 3.2-6.4l-115.2-92.8c-3.2 3.2-9.6 3.2-16 3.2s-12.8-3.2-16-6.4l-48 32c0 3.2 0 3.2 0 6.4 0 19.2-12.8 32-32 32s-32-12.8-32-32c0-3.2 0-6.4 3.2-12.8l-54.4-54.4c-3.2 0-6.4 3.2-12.8 3.2-19.2 0-32-12.8-32-32s12.8-32 32-32c19.2 0 32 12.8 32 32 0 3.2 0 6.4-3.2 12.8l54.4 54.4c3.2 0 6.4-3.2 12.8-3.2s12.8 3.2 16 6.4l48-32c0-3.2 0-3.2 0-6.4 0-19.2 12.8-32 32-32s32 12.8 32 32c0 3.2 0 6.4-3.2 6.4l115.2 92.8c3.2-3.2 9.6-3.2 16-3.2 19.2 0 32 12.8 32 32s-16 32-32 32zM832 601.6h-160c-12.8 0-25.6-12.8-25.6-25.6s12.8-25.6 25.6-25.6h160c12.8 0 25.6 12.8 25.6 25.6s-12.8 25.6-25.6 25.6zM736 454.4c12.8 0 25.6 12.8 25.6 25.6s-12.8 25.6-25.6 25.6h-64c-12.8 0-25.6-12.8-25.6-25.6s12.8-25.6 25.6-25.6h64zM713.6 368c-3.2 0-6.4-3.2-6.4-6.4v-99.2c0-3.2 3.2-6.4 6.4-6.4h99.2c3.2 0 6.4 3.2 6.4 6.4-6.4 54.4-51.2 99.2-105.6 105.6zM777.6 224h-99.2c-3.2 0-6.4 3.2-6.4 6.4v99.2c0 3.2-3.2 6.4-6.4 6.4-67.2-3.2-118.4-67.2-102.4-137.6 9.6-41.6 41.6-73.6 83.2-83.2 70.4-16 134.4 35.2 137.6 102.4 0 3.2-3.2 6.4-6.4 6.4z" />
<glyph unicode="&#xe949;" glyph-name="fenxi01-01" d="M992 864c0 19.2-12.8 32-32 32h-896c-19.2 0-32-12.8-32-32v-102.4h960v102.4zM144 800c-9.6 0-16 6.4-16 16s6.4 16 16 16 16-6.4 16-16c0-9.6-6.4-16-16-16zM208 800c-9.6 0-16 6.4-16 16s6.4 16 16 16c9.6 0 16-6.4 16-16s-6.4-16-16-16zM272 800c-9.6 0-16 6.4-16 16s6.4 16 16 16 16-6.4 16-16c0-9.6-6.4-16-16-16zM32 32c0-19.2 12.8-32 32-32h896c19.2 0 32 12.8 32 32v678.4h-960v-678.4zM403.2 108.8h-182.4v38.4h182.4v-38.4zM771.2 208h-550.4v38.4h550.4v-38.4zM240 448c9.6 0 16-3.2 22.4-6.4l57.6 41.6c0 3.2 0 6.4 0 9.6 0 25.6 22.4 48 48 48s48-22.4 48-48c0-3.2 0-9.6-3.2-12.8l92.8-73.6c6.4 3.2 12.8 6.4 22.4 6.4s19.2-3.2 25.6-6.4l214.4 144c0 3.2 0 6.4 0 9.6 0 25.6 22.4 48 48 48s48-22.4 48-48-22.4-48-48-48c-9.6 0-19.2 3.2-25.6 6.4l-214.4-140.8c0-3.2 0-6.4 0-9.6 0-25.6-22.4-48-48-48s-48 22.4-48 48c0 3.2 0 9.6 3.2 12.8l-92.8 73.6c-6.4-6.4-12.8-6.4-22.4-6.4s-16 3.2-22.4 6.4l-57.6-44.8c0-3.2 0-6.4 0-9.6 0-25.6-22.4-48-48-48s-48 22.4-48 48 22.4 48 48 48z" />
<glyph unicode="&#xe94a;" glyph-name="fenxi01" d="M960 896h-896c-19.2 0-32-12.8-32-32v-832c0-19.2 12.8-32 32-32h896c19.2 0 32 12.8 32 32v832c0 19.2-12.8 32-32 32zM928 832v-96h-832v96h832zM96 64v608h832v-608h-832zM160 784c0-8.837-7.163-16-16-16s-16 7.163-16 16c0 8.837 7.163 16 16 16s16-7.163 16-16zM224 784c0-8.837-7.163-16-16-16s-16 7.163-16 16c0 8.837 7.163 16 16 16s16-7.163 16-16zM288 784c0-8.837-7.163-16-16-16s-16 7.163-16 16c0 8.837 7.163 16 16 16s16-7.163 16-16zM752 252.8h-512c-12.8 0-25.6-12.8-25.6-25.6s12.8-25.6 25.6-25.6h512c12.8 0 25.6 12.8 25.6 25.6s-12.8 25.6-25.6 25.6zM384 153.6h-144c-12.8 0-25.6-12.8-25.6-25.6s12.8-25.6 25.6-25.6h144c12.8 0 25.6 12.8 25.6 25.6s-12.8 25.6-25.6 25.6zM816 608c-25.6 0-48-22.4-48-48 0-3.2 0-6.4 0-9.6l-214.4-144c-6.4 6.4-16 6.4-25.6 6.4s-16-3.2-22.4-6.4l-89.6 76.8c0 3.2 3.2 6.4 3.2 12.8 0 25.6-22.4 48-48 48s-51.2-22.4-51.2-48c0-3.2 0-6.4 0-9.6l-57.6-41.6c-6.4 0-12.8 3.2-22.4 3.2-25.6 0-48-22.4-48-48s22.4-48 48-48 48 22.4 48 48c0 3.2 0 6.4 0 9.6l57.6 41.6c6.4-3.2 16-6.4 22.4-6.4 9.6 0 16 3.2 22.4 6.4l92.8-73.6c0-3.2-3.2-6.4-3.2-12.8 0-25.6 22.4-48 48-48s48 22.4 48 48c0 3.2 0 6.4 0 9.6l214.4 144c6.4-6.4 16-6.4 25.6-6.4 25.6 0 48 22.4 48 48s-22.4 48-48 48z" />
<glyph unicode="&#xe94b;" glyph-name="fenxi02-01" d="M32 32c0-19.2 12.8-32 32-32h896c19.2 0 32 12.8 32 32v678.4h-960v-678.4zM528 611.2c0 6.4 6.4 12.8 12.8 12.8 67.2-6.4 124.8-60.8 131.2-131.2 0-6.4-6.4-12.8-12.8-12.8h-118.4c-6.4 0-12.8 6.4-12.8 12.8v118.4zM483.2 592c6.4 0 12.8-6.4 12.8-12.8v-118.4c0-6.4 6.4-12.8 12.8-12.8h118.4c6.4 0 12.8-6.4 12.8-12.8-6.4-73.6-67.2-131.2-144-131.2s-144 67.2-144 144c0 76.8 57.6 137.6 131.2 144zM220.8 246.4h550.4v-38.4h-550.4v38.4zM220.8 147.2h182.4v-38.4h-182.4v38.4zM992 864c0 19.2-12.8 32-32 32h-896c-19.2 0-32-12.8-32-32v-102.4h960v102.4zM144 800c-9.6 0-16 6.4-16 16s6.4 16 16 16 16-6.4 16-16c0-9.6-6.4-16-16-16zM208 800c-9.6 0-16 6.4-16 16s6.4 16 16 16c9.6 0 16-6.4 16-16s-6.4-16-16-16zM272 800c-9.6 0-16 6.4-16 16s6.4 16 16 16 16-6.4 16-16c0-9.6-6.4-16-16-16z" />
<glyph unicode="&#xe94c;" glyph-name="fenxi02" d="M960 896h-896c-19.2 0-32-12.8-32-32v-832c0-19.2 12.8-32 32-32h896c19.2 0 32 12.8 32 32v832c0 19.2-12.8 32-32 32zM928 832v-96h-832v96h832zM96 64v608h832v-608h-832zM160 784c0-8.837-7.163-16-16-16s-16 7.163-16 16c0 8.837 7.163 16 16 16s16-7.163 16-16zM224 784c0-8.837-7.163-16-16-16s-16 7.163-16 16c0 8.837 7.163 16 16 16s16-7.163 16-16zM288 784c0-8.837-7.163-16-16-16s-16 7.163-16 16c0 8.837 7.163 16 16 16s16-7.163 16-16zM752 252.8h-512c-12.8 0-25.6-12.8-25.6-25.6s12.8-25.6 25.6-25.6h512c12.8 0 25.6 12.8 25.6 25.6s-12.8 25.6-25.6 25.6zM384 153.6h-144c-12.8 0-25.6-12.8-25.6-25.6s12.8-25.6 25.6-25.6h144c12.8 0 25.6 12.8 25.6 25.6s-12.8 25.6-25.6 25.6zM496 304c73.6 0 137.6 57.6 144 131.2 0 6.4-6.4 12.8-12.8 12.8h-118.4c-6.4 0-12.8 6.4-12.8 12.8v118.4c0 6.4-6.4 12.8-12.8 12.8-73.6-6.4-131.2-67.2-131.2-144s67.2-144 144-144zM540.8 480h118.4c6.4 0 12.8 6.4 12.8 12.8-6.4 67.2-60.8 124.8-131.2 131.2-6.4 0-12.8-6.4-12.8-12.8v-118.4c0-6.4 6.4-12.8 12.8-12.8z" />
<glyph unicode="&#xe94d;" glyph-name="fenxi03-01" d="M992 864c0 19.2-12.8 32-32 32h-896c-19.2 0-32-12.8-32-32v-102.4h960v102.4zM144 800c-9.6 0-16 6.4-16 16s6.4 16 16 16 16-6.4 16-16c0-9.6-6.4-16-16-16zM208 800c-9.6 0-16 6.4-16 16s6.4 16 16 16c9.6 0 16-6.4 16-16s-6.4-16-16-16zM272 800c-9.6 0-16 6.4-16 16s6.4 16 16 16 16-6.4 16-16c0-9.6-6.4-16-16-16zM32 32c0-19.2 12.8-32 32-32h896c19.2 0 32 12.8 32 32v678.4h-960v-678.4zM547.2 630.4c54.4-12.8 102.4-48 121.6-102.4l-48-19.2c-16 35.2-48 64-86.4 70.4l12.8 51.2zM681.6 464c0-28.8-6.4-57.6-22.4-86.4l-44.8 25.6c9.6 19.2 16 38.4 16 57.6h51.2zM492.8 633.6l6.4-51.2c-60.8-6.4-105.6-57.6-105.6-118.4 0-64 54.4-118.4 118.4-118.4 28.8 0 54.4 9.6 73.6 25.6l32-38.4c-28.8-25.6-67.2-38.4-105.6-38.4-92.8 0-169.6 76.8-169.6 169.6 0 86.4 64 160 150.4 169.6zM220.8 246.4h550.4v-38.4h-550.4v38.4zM220.8 147.2h182.4v-38.4h-182.4v38.4z" />
<glyph unicode="&#xe94e;" glyph-name="fenxi03" d="M960 896h-896c-19.2 0-32-12.8-32-32v-832c0-19.2 12.8-32 32-32h896c19.2 0 32 12.8 32 32v832c0 19.2-12.8 32-32 32zM928 832v-96h-832v96h832zM96 64v608h832v-608h-832zM160 784c0-8.837-7.163-16-16-16s-16 7.163-16 16c0 8.837 7.163 16 16 16s16-7.163 16-16zM224 784c0-8.837-7.163-16-16-16s-16 7.163-16 16c0 8.837 7.163 16 16 16s16-7.163 16-16zM288 784c0-8.837-7.163-16-16-16s-16 7.163-16 16c0 8.837 7.163 16 16 16s16-7.163 16-16zM752 252.8h-512c-12.8 0-25.6-12.8-25.6-25.6s12.8-25.6 25.6-25.6h512c12.8 0 25.6 12.8 25.6 25.6s-12.8 25.6-25.6 25.6zM384 153.6h-144c-12.8 0-25.6-12.8-25.6-25.6s12.8-25.6 25.6-25.6h144c12.8 0 25.6 12.8 25.6 25.6s-12.8 25.6-25.6 25.6zM512 294.4c38.4 0 76.8 12.8 105.6 38.4l-32 38.4c-22.4-16-48-25.6-73.6-25.6-64 0-118.4 54.4-118.4 118.4 0 60.8 44.8 112 105.6 118.4l-6.4 51.2c-86.4-9.6-150.4-83.2-150.4-169.6 0-92.8 76.8-169.6 169.6-169.6zM614.4 406.4l44.8-25.6c16 25.6 22.4 54.4 22.4 86.4h-51.2c0-25.6-6.4-44.8-16-60.8zM620.8 508.8l48 19.2c-22.4 51.2-67.2 89.6-121.6 102.4l-9.6-51.2c35.2-6.4 70.4-32 83.2-70.4z" />
<glyph unicode="&#xe94f;" glyph-name="fenxi04-01" d="M992 864c0 19.2-12.8 32-32 32h-896c-19.2 0-32-12.8-32-32v-102.4h960v102.4zM144 800c-9.6 0-16 6.4-16 16s6.4 16 16 16 16-6.4 16-16c0-9.6-6.4-16-16-16zM208 800c-9.6 0-16 6.4-16 16s6.4 16 16 16c9.6 0 16-6.4 16-16s-6.4-16-16-16zM272 800c-9.6 0-16 6.4-16 16s6.4 16 16 16 16-6.4 16-16c0-9.6-6.4-16-16-16zM32 32c0-19.2 12.8-32 32-32h896c19.2 0 32 12.8 32 32v678.4h-960v-678.4zM672 608h64v-288h-64v288zM544 416h64v-96h-64v96zM416 576h64v-256h-64v256zM288 448h64v-128h-64v128zM220.8 246.4h582.4v-38.4h-582.4v38.4zM220.8 147.2h182.4v-38.4h-182.4v38.4z" />
<glyph unicode="&#xe950;" glyph-name="fenxi04" d="M960 896h-896c-16 0-32-12.8-32-32v-832c0-19.2 12.8-32 32-32h896c19.2 0 32 12.8 32 32v832c0 19.2-12.8 32-32 32zM928 832v-96h-832v96h832zM96 64v608h832v-608h-832zM160 784c0-8.837-7.163-16-16-16s-16 7.163-16 16c0 8.837 7.163 16 16 16s16-7.163 16-16zM224 784c0-8.837-7.163-16-16-16s-16 7.163-16 16c0 8.837 7.163 16 16 16s16-7.163 16-16zM288 784c0-8.837-7.163-16-16-16s-16 7.163-16 16c0 8.837 7.163 16 16 16s16-7.163 16-16zM784 252.8h-544c-12.8 0-25.6-12.8-25.6-25.6s12.8-25.6 25.6-25.6h544c12.8 0 25.6 12.8 25.6 25.6s-12.8 25.6-25.6 25.6zM384 153.6h-144c-12.8 0-25.6-12.8-25.6-25.6s12.8-25.6 25.6-25.6h144c12.8 0 25.6 12.8 25.6 25.6s-9.6 25.6-25.6 25.6zM288 448h64v-128h-64v128zM416 576h64v-256h-64v256zM544 416h64v-96h-64v96zM672 608h64v-288h-64v288z" />
<glyph unicode="&#xe951;" glyph-name="money-01" d="M512 924.8c-265.6 0-480-214.4-480-480s214.4-480 480-480 480 214.4 480 480c0 265.6-214.4 480-480 480zM652.8 236.8c-22.4-19.2-60.8-32-115.2-35.2v-41.6c0-12.8-9.6-19.2-19.2-19.2h-12.8c-12.8 0-19.2 9.6-19.2 19.2v41.6c-44.8 3.2-80 12.8-99.2 35.2-22.4 22.4-35.2 57.6-35.2 102.4v12.8c0 12.8 9.6 19.2 19.2 19.2h92.8c12.8 0 19.2-9.6 19.2-19.2v-19.2c0-28.8 12.8-41.6 35.2-41.6s35.2 16 35.2 44.8c0 12.8-3.2 25.6-9.6 32-3.2 3.2-9.6 9.6-22.4 16-16 6.4-38.4 16-70.4 32s-51.2 28.8-64 38.4c-22.4 22.4-35.2 54.4-35.2 96 0 96 44.8 147.2 131.2 153.6v32c0 12.8 9.6 19.2 19.2 19.2h12.8c12.8 0 19.2-9.6 19.2-19.2v-32c54.4-3.2 96-19.2 115.2-44.8 16-19.2 22.4-48 25.6-83.2 0-3.2 0 0 0-12.8s-9.6-19.2-19.2-19.2h-89.6c-12.8 0-19.2 9.6-19.2 19.2v19.2c0 25.6-9.6 38.4-32 38.4s-32-12.8-32-38.4c0-25.6 19.2-44.8 54.4-60.8 60.8-25.6 92.8-41.6 99.2-44.8 35.2-25.6 54.4-64 54.4-112 0-64-12.8-102.4-38.4-128z" />
<glyph unicode="&#xe952;" glyph-name="money" d="M636.8 470.4c-6.4 3.2-41.6 19.2-99.2 44.8-35.2 16-54.4 35.2-54.4 60.8s9.6 38.4 32 38.4c22.4 0 32-12.8 32-38.4v-19.2c0-12.8 9.6-19.2 19.2-19.2h89.6c12.8 0 19.2 9.6 19.2 19.2 0 12.8 0 9.6 0 12.8-3.2 35.2-9.6 64-25.6 83.2-22.4 28.8-60.8 44.8-115.2 44.8v32c0 12.8-9.6 19.2-19.2 19.2h-12.8c-12.8 0-19.2-9.6-19.2-19.2v-32c-89.6-3.2-131.2-51.2-131.2-150.4 0-41.6 12.8-73.6 35.2-96 12.8-12.8 32-25.6 64-38.4 32-16 54.4-25.6 70.4-32 9.6-6.4 19.2-12.8 22.4-16 6.4-6.4 9.6-16 9.6-32 0-28.8-12.8-44.8-35.2-44.8s-35.2 12.8-35.2 41.6v22.4c0 12.8-9.6 19.2-19.2 19.2h-92.8c-12.8 0-19.2-9.6-19.2-19.2v-9.6c0-48 12.8-80 35.2-102.4s54.4-32 99.2-35.2v-41.6c0-12.8 9.6-19.2 19.2-19.2h12.8c12.8 0 19.2 9.6 19.2 19.2v41.6c54.4 3.2 92.8 12.8 115.2 35.2 25.6 22.4 38.4 64 38.4 118.4 0 48-19.2 86.4-54.4 112zM512 924.8c-265.6 0-480-214.4-480-480s214.4-480 480-480 480 214.4 480 480-214.4 480-480 480zM512 28.8c-230.4 0-416 185.6-416 416s185.6 416 416 416 416-185.6 416-416-185.6-416-416-416z" />
<glyph unicode="&#xe953;" glyph-name="shenfz-01" d="M921.6 809.6h-832c-54.4 0-96-41.6-96-96v-544c0-54.4 41.6-96 96-96h832c54.4 0 96 41.6 96 96v544c0 54.4-41.6 96-96 96zM604.8 499.2h96c16 0 25.6-9.6 25.6-25.6 0-12.8-9.6-25.6-25.6-25.6h-96c0 0 0 0 0 0-12.8 0-25.6 12.8-25.6 25.6 0 16 12.8 25.6 25.6 25.6zM313.6 592c54.4 0 99.2-44.8 99.2-99.2s-44.8-99.2-99.2-99.2c-54.4 0-99.2 44.8-99.2 99.2s44.8 99.2 99.2 99.2zM435.2 265.6c-38.4-9.6-80-16-121.6-16s-83.2 6.4-121.6 16c-6.4 3.2-12.8 9.6-9.6 19.2 22.4 48 73.6 83.2 131.2 83.2s108.8-35.2 131.2-83.2c3.2-6.4 0-16-9.6-19.2zM796.8 320h-192c-12.8 0-25.6 12.8-25.6 25.6s12.8 25.6 25.6 25.6h192c12.8 0 25.6-12.8 25.6-25.6s-9.6-25.6-25.6-25.6z" />
<glyph unicode="&#xe954;" glyph-name="shenfz" d="M448 499.2c0-54.787-44.413-99.2-99.2-99.2s-99.2 44.413-99.2 99.2c0 54.787 44.413 99.2 99.2 99.2s99.2-44.413 99.2-99.2zM348.8 374.4c-57.6 0-108.8-35.2-131.2-83.2-3.2-6.4 0-16 9.6-19.2 38.4-9.6 80-16 121.6-16s83.2 6.4 121.6 16c6.4 3.2 12.8 9.6 9.6 19.2-22.4 48-70.4 83.2-131.2 83.2zM611.2 454.4c0 0 0 0 0 0h96c12.8 0 25.6 12.8 25.6 25.6s-9.6 25.6-25.6 25.6h-96c-12.8 0-25.6-12.8-25.6-25.6s12.8-25.6 25.6-25.6zM803.2 377.6h-192c-12.8 0-25.6-12.8-25.6-25.6s12.8-25.6 25.6-25.6h192c12.8 0 25.6 12.8 25.6 25.6s-12.8 25.6-25.6 25.6zM928 816h-832c-54.4 0-96-41.6-96-96v-544c0-54.4 41.6-96 96-96h832c54.4 0 96 41.6 96 96v544c0 54.4-41.6 96-96 96zM960 176c0-19.2-12.8-32-32-32h-832c-19.2 0-32 16-32 32v544c0 19.2 12.8 32 32 32h832c19.2 0 32-16 32-32v-544z" />
<glyph unicode="&#xe955;" glyph-name="churz-01" d="M921.6 777.6h-121.6v-32c0-38.4-32-70.4-70.4-70.4s-70.4 32-70.4 70.4v32h-307.2v-32c0-38.4-32-70.4-70.4-70.4s-70.4 32-70.4 70.4v32h-121.6c-54.4 0-96-41.6-96-96v-512c0-54.4 41.6-96 96-96h832c54.4 0 96 41.6 96 96v512c0 54.4-41.6 96-96 96zM604.8 499.2h96c0 0 0 0 0 0 12.8 0 25.6-12.8 25.6-25.6s-9.6-25.6-25.6-25.6h-96c0 0 0 0 0 0-12.8 0-25.6 12.8-25.6 25.6 0 16 12.8 25.6 25.6 25.6zM313.6 592c54.4 0 99.2-44.8 99.2-99.2s-44.8-99.2-99.2-99.2c-54.4 0-99.2 44.8-99.2 99.2s44.8 99.2 99.2 99.2zM435.2 265.6c-38.4-9.6-80-16-121.6-16s-83.2 6.4-121.6 16c-6.4 3.2-12.8 9.6-9.6 19.2 22.4 48 73.6 83.2 131.2 83.2s108.8-35.2 131.2-83.2c3.2-6.4 0-16-9.6-19.2zM796.8 320h-192c-12.8 0-25.6 12.8-25.6 25.6s12.8 25.6 25.6 25.6h192c12.8 0 25.6-12.8 25.6-25.6s-9.6-25.6-25.6-25.6zM281.6 848c22.4 0 38.4-16 38.4-38.4v-64c0-22.4-16-38.4-38.4-38.4s-38.4 19.2-38.4 38.4v64c0 22.4 19.2 38.4 38.4 38.4zM729.6 848c22.4 0 38.4-16 38.4-38.4v-64c0-22.4-16-38.4-38.4-38.4s-38.4 16-38.4 38.4v64c0 22.4 19.2 38.4 38.4 38.4z" />
<glyph unicode="&#xe956;" glyph-name="churz" d="M736 681.6c22.4 0 38.4 16 38.4 38.4v64c0 22.4-16 38.4-38.4 38.4s-38.4-16-38.4-38.4v-64c0-22.4 16-38.4 38.4-38.4zM384 720c0 0 0 0 0 0h256c19.2 0 32 16 32 32 0 19.2-12.8 32-32 32 0 0 0 0 0 0h-256c-19.2 0-32-16-32-32 0-19.2 12.8-32 32-32zM288 681.6c22.4 0 38.4 16 38.4 38.4v64c0 22.4-16 38.4-38.4 38.4s-38.4-19.2-38.4-38.4v-64c0-22.4 16-38.4 38.4-38.4zM928 784h-96c-19.2 0-32-12.8-32-32s12.8-32 32-32h96c19.2 0 32-12.8 32-32v-512c0-19.2-12.8-32-32-32h-832c-19.2 0-32 12.8-32 32v512c0 19.2 12.8 32 32 32h96c19.2 0 32 12.8 32 32s-12.8 32-32 32h-96c-54.4 0-96-41.6-96-96v-512c0-54.4 41.6-96 96-96h832c54.4 0 96 41.6 96 96v512c0 51.2-41.6 96-96 96zM448 499.2c0-54.787-44.413-99.2-99.2-99.2s-99.2 44.413-99.2 99.2c0 54.787 44.413 99.2 99.2 99.2s99.2-44.413 99.2-99.2zM227.2 272c38.4-9.6 80-16 121.6-16s83.2 6.4 121.6 16c6.4 3.2 12.8 9.6 9.6 19.2-22.4 48-73.6 83.2-131.2 83.2s-108.8-35.2-131.2-83.2c-3.2-9.6 3.2-19.2 9.6-19.2zM611.2 454.4c0 0 0 0 0 0h96c12.8 0 25.6 12.8 25.6 25.6s-12.8 25.6-25.6 25.6h-96c-12.8 0-25.6-12.8-25.6-25.6s12.8-25.6 25.6-25.6zM611.2 326.4h192c12.8 0 25.6 12.8 25.6 25.6s-12.8 25.6-25.6 25.6h-192c-12.8 0-25.6-12.8-25.6-25.6s12.8-25.6 25.6-25.6z" />
<glyph unicode="&#xe957;" glyph-name="suiwudj-01" d="M921.6 809.6h-832c-54.4 0-96-41.6-96-96v-544c0-54.4 41.6-96 96-96h832c54.4 0 96 41.6 96 96v544c0 54.4-41.6 96-96 96zM604.8 499.2h96c16 0 25.6-9.6 25.6-25.6 0-12.8-9.6-25.6-25.6-25.6h-96c0 0 0 0 0 0-12.8 0-25.6 12.8-25.6 25.6 0 16 12.8 25.6 25.6 25.6zM384 310.4c-12.8-12.8-38.4-19.2-73.6-22.4v-25.6c0-6.4-6.4-12.8-12.8-12.8h-9.6c-6.4 0-12.8 6.4-12.8 12.8v25.6c-28.8 0-51.2 9.6-64 22.4-16 12.8-22.4 35.2-22.4 64v6.4c0 6.4 6.4 12.8 12.8 12.8h57.6c6.4 0 12.8-6.4 12.8-12.8v-12.8c0-16 6.4-25.6 22.4-25.6 12.8 0 22.4 9.6 22.4 28.8 0 9.6-3.2 16-6.4 19.2s-6.4 6.4-12.8 9.6-22.4 12.8-41.6 22.4c-19.2 9.6-32 16-41.6 25.6-16 12.8-22.4 32-22.4 57.6 0 60.8 28.8 92.8 83.2 96v19.2c0 6.4 6.4 12.8 12.8 12.8h9.6c6.4 0 12.8-6.4 12.8-12.8v-19.2c35.2 0 60.8-12.8 73.6-28.8 9.6-12.8 16-28.8 16-54.4 0-3.2 0 0 0-9.6 0-6.4-6.4-12.8-12.8-12.8h-57.6c-6.4 0-12.8 6.4-12.8 12.8v12.8c0 16-6.4 25.6-19.2 25.6s-19.2-9.6-19.2-22.4c0-16 12.8-28.8 35.2-38.4 38.4-16 57.6-25.6 64-28.8 22.4-16 35.2-38.4 35.2-70.4-6.4-38.4-12.8-64-28.8-76.8zM796.8 320h-192c-12.8 0-25.6 12.8-25.6 25.6s12.8 25.6 25.6 25.6h192c12.8 0 25.6-12.8 25.6-25.6s-9.6-25.6-25.6-25.6z" />
<glyph unicode="&#xe958;" glyph-name="suiwudj" d="M377.6 460.8c-3.2 3.2-25.6 12.8-64 28.8-22.4 9.6-35.2 22.4-35.2 38.4s6.4 22.4 19.2 22.4c12.8 0 19.2-9.6 19.2-25.6v-12.8c0-6.4 6.4-12.8 12.8-12.8h57.6c6.4 0 12.8 6.4 12.8 12.8 0 9.6 0 6.4 0 9.6 0 22.4-6.4 41.6-16 54.4-12.8 19.2-38.4 28.8-73.6 28.8v19.2c0 6.4-6.4 12.8-12.8 12.8h-3.2c-6.4 0-12.8-6.4-12.8-12.8v-16c-54.4-3.2-83.2-35.2-83.2-96 0-25.6 6.4-44.8 22.4-60.8 6.4-6.4 22.4-16 41.6-25.6s35.2-16 44.8-19.2c6.4-3.2 12.8-6.4 12.8-9.6 3.2-3.2 6.4-9.6 6.4-19.2 0-19.2-6.4-28.8-22.4-28.8-12.8 0-22.4 9.6-22.4 25.6v12.8c0 6.4-6.4 12.8-12.8 12.8h-60.8c-6.4 0-12.8-6.4-12.8-12.8v-6.4c0-28.8 6.4-51.2 22.4-64 12.8-12.8 35.2-22.4 64-22.4v-25.6c0-6.4 6.4-12.8 12.8-12.8h9.6c6.4 0 12.8 6.4 12.8 12.8v25.6c35.2 0 57.6 9.6 73.6 22.4 16 16 25.6 41.6 25.6 76.8-3.2 28.8-16 51.2-38.4 67.2zM611.2 454.4c0 0 0 0 0 0h96c12.8 0 25.6 12.8 25.6 25.6s-9.6 25.6-25.6 25.6h-96c-12.8 0-25.6-12.8-25.6-25.6s12.8-25.6 25.6-25.6zM803.2 377.6h-192c-12.8 0-25.6-12.8-25.6-25.6s12.8-25.6 25.6-25.6h192c12.8 0 25.6 12.8 25.6 25.6s-12.8 25.6-25.6 25.6zM928 816h-832c-54.4 0-96-41.6-96-96v-544c0-54.4 41.6-96 96-96h832c54.4 0 96 41.6 96 96v544c0 54.4-41.6 96-96 96zM960 176c0-19.2-12.8-32-32-32h-832c-19.2 0-32 16-32 32v544c0 19.2 12.8 32 32 32h832c19.2 0 32-16 32-32v-544z" />
<glyph unicode="&#xe959;" glyph-name="xiaofz-01" d="M921.6 809.6h-832c-54.4 0-96-41.6-96-96v-544c0-54.4 41.6-96 96-96h832c54.4 0 96 41.6 96 96v544c0 54.4-41.6 96-96 96zM604.8 499.2h96c0 0 0 0 0 0 12.8 0 25.6-12.8 25.6-25.6s-9.6-25.6-25.6-25.6h-96c0 0 0 0 0 0-12.8 0-25.6 12.8-25.6 25.6 0 16 12.8 25.6 25.6 25.6zM403.2 518.4c0-3.2 0-6.4-3.2-6.4 0 0-3.2 0-3.2 0s-3.2 0-3.2 0l-41.6 19.2c-3.2 0-3.2 3.2-3.2 6.4h-25.6c22.4-12.8 38.4-35.2 38.4-64v-204.8c0-9.6-9.6-19.2-19.2-19.2h-99.2c-12.8 0-19.2 6.4-19.2 19.2v204.8c0 28.8 16 51.2 38.4 64h-12.8c-41.6 0-73.6-32-73.6-73.6v-128c0-6.4-6.4-12.8-12.8-12.8s-12.8 6.4-12.8 12.8v128c0 54.4 44.8 99.2 99.2 99.2h16v22.4c0 9.6 6.4 16 16 16h19.2c9.6 0 16-6.4 16-16v-22.4h28.8c0 3.2 3.2 3.2 3.2 6.4l41.6 19.2c3.2 0 6.4 0 6.4 0 3.2 0 3.2-3.2 3.2-6.4v-64zM796.8 320h-192c-12.8 0-25.6 12.8-25.6 25.6s12.8 25.6 25.6 25.6h192c12.8 0 25.6-12.8 25.6-25.6s-9.6-25.6-25.6-25.6z" />
<glyph unicode="&#xe95a;" glyph-name="xiaofz" d="M611.2 454.4c0 0 0 0 0 0h96c12.8 0 25.6 12.8 25.6 25.6s-12.8 25.6-25.6 25.6c0 0 0 0 0 0h-96c-12.8 0-25.6-12.8-25.6-25.6s12.8-25.6 25.6-25.6zM803.2 377.6h-192c-12.8 0-25.6-12.8-25.6-25.6s12.8-25.6 25.6-25.6h192c12.8 0 25.6 12.8 25.6 25.6s-12.8 25.6-25.6 25.6zM928 816h-832c-54.4 0-96-41.6-96-96v-544c0-54.4 41.6-96 96-96h832c54.4 0 96 41.6 96 96v544c0 54.4-41.6 96-96 96zM960 176c0-19.2-12.8-32-32-32h-832c-19.2 0-32 16-32 32v544c0 19.2 12.8 32 32 32h832c19.2 0 32-16 32-32v-544zM396.8 592l-41.6-19.2c-3.2 0-3.2-3.2-3.2-6.4h-28.8v22.4c0 9.6-6.4 16-16 16h-19.2c-9.6 0-16-6.4-16-16v-22.4h-16c-54.4 0-99.2-44.8-99.2-99.2v-128c0-6.4 6.4-12.8 12.8-12.8s12.8 6.4 12.8 12.8v128c0 41.6 32 73.6 73.6 73.6h12.8c-22.4-12.8-38.4-35.2-38.4-64v-204.8c0-9.6 9.6-19.2 19.2-19.2h99.2c9.6 0 19.2 9.6 19.2 19.2v204.8c0 28.8-16 51.2-38.4 64h22.4c0-3.2 3.2-3.2 3.2-6.4l41.6-19.2c0 0 3.2 0 3.2 0s3.2 0 3.2 0 3.2 3.2 3.2 6.4v60.8c0 3.2 0 6.4-3.2 6.4 0 3.2-3.2 3.2-6.4 3.2z" />
<glyph unicode="&#xe95b;" glyph-name="xiuxsc-01" d="M153.6 672c22.4 0 38.4-16 38.4-38.4s-16-38.4-38.4-38.4h-64c-22.4 0-38.4 16-38.4 38.4s19.2 38.4 38.4 38.4h64zM153.6 480c22.4 0 38.4-16 38.4-38.4s-16-38.4-38.4-38.4h-64c-22.4 0-38.4 16-38.4 38.4s19.2 38.4 38.4 38.4h64zM153.6 288c22.4 0 38.4-16 38.4-38.4s-16-38.4-38.4-38.4h-64c-22.4 0-38.4 16-38.4 38.4s19.2 38.4 38.4 38.4h64zM825.6 889.6h-640c-54.4 0-96-41.6-96-96v-89.6h64c38.4 0 70.4-28.8 70.4-70.4s-32-70.4-70.4-70.4h-64v-51.2h64c38.4 0 70.4-28.8 70.4-70.4s-32-70.4-70.4-70.4h-64v-51.2h64c38.4 0 70.4-28.8 70.4-70.4s-32-70.4-70.4-70.4h-64v-89.6c0-54.4 41.6-96 96-96h640c54.4 0 96 41.6 96 96v704c0 54.4-41.6 96-96 96zM752 582.4c-19.2-32-54.4-54.4-92.8-54.4l-121.6-208c19.2-32 19.2-73.6 0-108.8s-54.4-54.4-92.8-54.4c-6.4 0-12.8 0-16 0s-6.4 3.2-6.4 6.4 0 6.4 0 9.6l25.6 41.6-16 22.4-28.8 3.2-25.6-41.6c0-3.2-3.2-3.2-6.4-3.2s-6.4 0-9.6 3.2c-28.8 35.2-32 83.2-9.6 121.6 19.2 32 54.4 54.4 92.8 54.4l121.6 211.2c-19.2 32-19.2 73.6 0 108.8 22.4 38.4 67.2 60.8 112 51.2 3.2 0 6.4-3.2 6.4-6.4s0-6.4 0-9.6l-25.6-44.8 12.8-22.4 28.8-3.2 25.6 44.8c0 3.2 3.2 3.2 6.4 3.2s6.4 0 9.6-3.2c28.8-35.2 32-83.2 9.6-121.6z" />
<glyph unicode="&#xe95c;" glyph-name="xiuxsc" d="M160 569.6h-64c-22.4 0-38.4 16-38.4 38.4s16 38.4 38.4 38.4h64c22.4 0 38.4-16 38.4-38.4s-19.2-38.4-38.4-38.4zM160 409.6h-64c-22.4 0-38.4 16-38.4 38.4s16 38.4 38.4 38.4h64c22.4 0 38.4-16 38.4-38.4s-19.2-38.4-38.4-38.4zM160 249.6h-64c-22.4 0-38.4 16-38.4 38.4s16 38.4 38.4 38.4h64c22.4 0 38.4-16 38.4-38.4s-19.2-38.4-38.4-38.4zM448 147.2c-6.4 0-12.8 0-19.2 0-9.6 0-16 6.4-19.2 12.8s-3.2 16 0 22.4l19.2 35.2-6.4 9.6h-9.6l-19.2-35.2c-3.2-6.4-12.8-12.8-19.2-12.8-9.6 0-16 3.2-22.4 9.6-32 38.4-38.4 96-12.8 140.8 19.2 35.2 57.6 57.6 99.2 60.8l112 195.2c-16 35.2-16 80 3.2 115.2 25.6 44.8 76.8 67.2 128 60.8 9.6 0 16-6.4 19.2-12.8s3.2-16 0-22.4l-19.2-35.2 6.4-9.6h9.6l19.2 35.2c3.2 6.4 12.8 12.8 19.2 12.8 9.6 0 16-3.2 22.4-9.6 32-38.4 38.4-96 12.8-140.8-19.2-35.2-57.6-57.6-99.2-60.8l-112-195.2c16-35.2 16-80-3.2-115.2-22.4-38.4-64-60.8-108.8-60.8zM400 281.6c0 0 0 0 0 0l41.6-3.2c9.6 0 16-6.4 19.2-12.8l19.2-32c6.4-9.6 6.4-19.2 0-25.6v-3.2c12.8 6.4 22.4 16 32 28.8 12.8 22.4 12.8 54.4-3.2 76.8-6.4 9.6-6.4 19.2 0 25.6l128 220.8c6.4 9.6 12.8 12.8 22.4 12.8 28.8 0 54.4 12.8 67.2 35.2 6.4 12.8 9.6 25.6 9.6 41.6l-3.2-3.2c-6.4-9.6-12.8-12.8-22.4-12.8l-38.4 3.2c-9.6 0-16 6.4-19.2 12.8l-19.2 32c-6.4 9.6-6.4 19.2 0 25.6l3.2 3.2c-12.8-6.4-25.6-16-32-28.8-12.8-22.4-12.8-54.4 3.2-76.8 6.4-9.6 6.4-19.2 0-25.6l-128-220.8c-6.4-9.6-12.8-12.8-22.4-12.8-28.8 0-54.4-12.8-67.2-35.2-6.4-12.8-9.6-28.8-9.6-41.6l3.2 3.2c0 6.4 6.4 12.8 16 12.8zM864 0h-672c-54.4 0-96 41.6-96 96v96c0 19.2 12.8 32 32 32s32-12.8 32-32v-96c0-19.2 12.8-32 32-32h672c19.2 0 32 12.8 32 32v704c0 19.2-12.8 32-32 32h-672c-19.2 0-32-12.8-32-32v-96c0-19.2-12.8-32-32-32s-32 12.8-32 32v96c0 54.4 41.6 96 96 96h672c54.4 0 96-41.6 96-96v-704c0-54.4-41.6-96-96-96z" />
<glyph unicode="&#xe95d;" glyph-name="anqship-01" d="M675.2 473.6c0-15.906-12.894-28.8-28.8-28.8s-28.8 12.894-28.8 28.8c0 15.906 12.894 28.8 28.8 28.8s28.8-12.894 28.8-28.8zM896 812.8l-92.8 32c-163.2 54.4-428.8 54.4-592 0l-92.8-32c-32-9.6-54.4-38.4-54.4-73.6v-256c0-156.8 83.2-304 220.8-384 0 0 3.2 0 3.2 0l204.8-92.8c3.2-3.2 9.6-3.2 12.8-3.2s9.6 0 12.8 3.2l204.8 92.8c0 0 3.2 0 3.2 0 134.4 80 220.8 227.2 220.8 384v256c3.2 35.2-19.2 64-51.2 73.6zM739.2 451.2c-38.4-38.4-86.4-67.2-140.8-80-51.2-54.4-102.4-51.2-112-48-6.4 3.2-6.4 9.6-6.4 16l9.6 35.2c-54.4 12.8-99.2 41.6-137.6 80l-57.6-57.6c-3.2-3.2-6.4-3.2-9.6-3.2 0 0-3.2 0-3.2 0-3.2 3.2-6.4 6.4-6.4 9.6v140.8c0 3.2 3.2 9.6 6.4 9.6 3.2 3.2 9.6 0 12.8-3.2l57.6-57.6c35.2 38.4 83.2 67.2 137.6 80l-9.6 35.2c0 6.4 0 12.8 6.4 16s60.8 3.2 112-48c54.4-9.6 105.6-38.4 144-80 9.6-9.6 9.6-32-3.2-44.8z" />
<glyph unicode="&#xe95e;" glyph-name="anqship" d="M723.2 492.8c-35.2 35.2-80 60.8-128 70.4-44.8 48-92.8 48-99.2 44.8-3.2-3.2-6.4-9.6-3.2-12.8l9.6-32c-48-9.6-89.6-35.2-121.6-70.4l-60.8 51.2c-3.2 3.2-6.4 3.2-12.8 3.2-3.2-3.2-6.4-6.4-6.4-9.6v-128c0-3.2 3.2-9.6 6.4-9.6 0 0 3.2 0 3.2 0 3.2 0 6.4 0 6.4 3.2l54.4 54.4c32-35.2 73.6-60.8 121.6-70.4l-9.6-32c0-6.4 0-9.6 3.2-12.8 6.4-3.2 54.4-3.2 99.2 44.8 51.2 9.6 96 35.2 128 70.4 19.2 6.4 19.2 22.4 9.6 35.2zM636.8 448c-12.8 0-25.6 12.8-25.6 25.6s12.8 25.6 25.6 25.6 25.6-12.8 25.6-25.6c0-16-9.6-25.6-25.6-25.6zM512 6.4c-3.2 0-9.6 0-12.8 3.2l-204.8 92.8c0 0-3.2 0-3.2 0-134.4 80-220.8 227.2-220.8 384v256c0 32 19.2 60.8 51.2 70.4l92.8 32c163.2 54.4 432 54.4 595.2 0l92.8-32c32-9.6 51.2-38.4 51.2-70.4v-256c0-156.8-83.2-304-220.8-384 0 0-3.2 0-3.2 0l-204.8-92.8c-3.2-3.2-9.6-3.2-12.8-3.2zM320 160l192-86.4 192 86.4c115.2 67.2 185.6 195.2 185.6 329.6v256c0 6.4-3.2 9.6-6.4 9.6l-92.8 32c-150.4 51.2-403.2 51.2-553.6 0l-92.8-32c-3.2 0-6.4-6.4-6.4-9.6v-256c-3.2-134.4 67.2-259.2 182.4-329.6zM716.8 131.2v0 0z" />
<glyph unicode="&#xe95f;" glyph-name="yingyzz-01" d="M288 614.4c-57.6 0-102.4-44.8-102.4-102.4s44.8-102.4 102.4-102.4 102.4 44.8 102.4 102.4-44.8 102.4-102.4 102.4zM288 448c-35.2 0-64 28.8-64 64s28.8 64 64 64 64-28.8 64-64-28.8-64-64-64zM921.6 809.6h-832c-54.4 0-96-41.6-96-96v-544c0-54.4 41.6-96 96-96h832c54.4 0 96 41.6 96 96v544c0 54.4-41.6 96-96 96zM604.8 499.2h96c0 0 0 0 0 0 12.8 0 25.6-12.8 25.6-25.6s-9.6-25.6-25.6-25.6h-96c0 0 0 0 0 0-12.8 0-25.6 12.8-25.6 25.6 0 16 12.8 25.6 25.6 25.6zM371.2 384v-128c0-6.4-3.2-9.6-6.4-12.8s-6.4-3.2-9.6-3.2c-3.2 0-3.2 0-6.4 0l-57.6 25.6-57.6-25.6c-6.4-3.2-9.6-3.2-16 0-3.2 3.2-6.4 9.6-6.4 12.8v124.8c-44.8 25.6-76.8 76.8-76.8 131.2 0 83.2 70.4 153.6 153.6 153.6s153.6-70.4 153.6-153.6c0-51.2-28.8-99.2-70.4-124.8zM796.8 320h-192c-12.8 0-25.6 12.8-25.6 25.6s12.8 25.6 25.6 25.6h192c12.8 0 25.6-12.8 25.6-25.6s-9.6-25.6-25.6-25.6z" />
<glyph unicode="&#xe960;" glyph-name="yingyzz" d="M611.2 454.4c0 0 0 0 0 0h96c12.8 0 25.6 12.8 25.6 25.6s-12.8 25.6-25.6 25.6c0 0 0 0 0 0h-96c-12.8 0-25.6-12.8-25.6-25.6s12.8-25.6 25.6-25.6zM803.2 377.6h-192c-12.8 0-25.6-12.8-25.6-25.6s12.8-25.6 25.6-25.6h192c12.8 0 25.6 12.8 25.6 25.6s-12.8 25.6-25.6 25.6zM928 816h-832c-54.4 0-96-41.6-96-96v-544c0-54.4 41.6-96 96-96h832c54.4 0 96 41.6 96 96v544c0 54.4-41.6 96-96 96zM960 176c0-19.2-12.8-32-32-32h-832c-19.2 0-32 16-32 32v544c0 19.2 12.8 32 32 32h832c19.2 0 32-16 32-32v-544zM294.4 672c-83.2 0-153.6-70.4-153.6-153.6 0-51.2 25.6-99.2 67.2-128 0 0 0 0 0 0v-128c0-9.6 3.2-16 12.8-22.4 6.4-3.2 16-6.4 25.6-3.2l54.4 22.4 54.4-22.4c3.2 0 6.4-3.2 9.6-3.2 6.4 0 9.6 0 12.8 3.2 6.4 3.2 12.8 12.8 12.8 22.4v128c0 3.2 0 3.2 0 6.4 38.4 28.8 60.8 73.6 60.8 121.6-3.2 86.4-73.6 156.8-156.8 156.8zM294.4 416c-57.6 0-102.4 44.8-102.4 102.4s44.8 102.4 102.4 102.4 102.4-44.8 102.4-102.4-48-102.4-102.4-102.4zM358.4 518.4c0-35.346-28.654-64-64-64s-64 28.654-64 64c0 35.346 28.654 64 64 64s64-28.654 64-64z" />
<glyph unicode="&#xe961;" glyph-name="zhengz-01" d="M675.2 592c-57.6 0-102.4-44.8-102.4-102.4s44.8-102.4 102.4-102.4 102.4 44.8 102.4 102.4-44.8 102.4-102.4 102.4zM675.2 425.6c-35.2 0-64 28.8-64 64s28.8 64 64 64 64-28.8 64-64-28.8-64-64-64zM921.6 809.6h-832c-54.4 0-96-41.6-96-96v-544c0-54.4 41.6-96 96-96h832c54.4 0 96 41.6 96 96v544c0 54.4-41.6 96-96 96zM220.8 502.4h96c12.8 0 25.6-12.8 25.6-25.6s-12.8-25.6-25.6-25.6h-96c-12.8 0-25.6 12.8-25.6 25.6s12.8 25.6 25.6 25.6zM412.8 320h-192c-12.8 0-25.6 12.8-25.6 25.6s12.8 25.6 25.6 25.6h192c12.8 0 25.6-12.8 25.6-25.6s-9.6-25.6-25.6-25.6zM758.4 361.6v-128c0-6.4-3.2-9.6-6.4-12.8s-6.4-3.2-9.6-3.2c-3.2 0-3.2 0-6.4 0l-57.6 25.6-57.6-25.6c-6.4-3.2-9.6-3.2-16 0-3.2 3.2-6.4 9.6-6.4 12.8v124.8c-44.8 25.6-76.8 76.8-76.8 131.2 0 83.2 70.4 153.6 153.6 153.6s153.6-70.4 153.6-153.6c0-51.2-28.8-96-70.4-124.8z" />
<glyph unicode="&#xe962;" glyph-name="zhengz" d="M227.2 454.4h96c12.8 0 25.6 12.8 25.6 25.6s-12.8 25.6-25.6 25.6h-96c-12.8 0-25.6-12.8-25.6-25.6s12.8-25.6 25.6-25.6zM419.2 377.6h-192c-12.8 0-25.6-12.8-25.6-25.6s12.8-25.6 25.6-25.6h192c12.8 0 25.6 12.8 25.6 25.6s-12.8 25.6-25.6 25.6zM928 816h-832c-54.4 0-96-41.6-96-96v-544c0-54.4 41.6-96 96-96h832c54.4 0 96 41.6 96 96v544c0 54.4-41.6 96-96 96zM960 176c0-19.2-12.8-32-32-32h-832c-19.2 0-32 16-32 32v544c0 19.2 12.8 32 32 32h832c19.2 0 32-16 32-32v-544zM681.6 649.6c-83.2 0-153.6-70.4-153.6-153.6 0-51.2 25.6-99.2 67.2-128 0 0 0 0 0 0v-128c0-9.6 3.2-16 12.8-22.4 6.4-3.2 16-6.4 25.6-3.2l54.4 22.4 54.4-22.4c3.2 0 6.4-3.2 9.6-3.2 6.4 0 9.6 0 12.8 3.2 6.4 3.2 12.8 12.8 12.8 22.4v128c0 3.2 0 3.2 0 6.4 38.4 28.8 60.8 73.6 60.8 121.6-3.2 86.4-73.6 156.8-156.8 156.8zM681.6 393.6c-57.6 0-102.4 44.8-102.4 102.4s44.8 102.4 102.4 102.4 102.4-44.8 102.4-102.4-44.8-102.4-102.4-102.4zM745.6 496c0-35.346-28.654-64-64-64s-64 28.654-64 64c0 35.346 28.654 64 64 64s64-28.654 64-64z" />
<glyph unicode="&#xe963;" glyph-name="rili01-01" d="M697.6 912c22.4 0 38.4-16 38.4-38.4v-64c0-22.4-16-38.4-38.4-38.4s-38.4 16-38.4 38.4v64c0 22.4 19.2 38.4 38.4 38.4zM313.6 912c22.4 0 38.4-16 38.4-38.4v-64c0-22.4-16-38.4-38.4-38.4s-38.4 19.2-38.4 38.4v64c0 22.4 19.2 38.4 38.4 38.4zM857.6 841.6h-89.6v-32c0-38.4-32-70.4-70.4-70.4s-70.4 32-70.4 70.4v32h-243.2v-32c0-38.4-32-70.4-70.4-70.4s-70.4 32-70.4 70.4v32h-89.6c-54.4 0-96-41.6-96-96v-80h896v80c0 54.4-41.6 96-96 96zM57.6 614.4v-508.8c0-54.4 41.6-96 96-96h704c54.4 0 96 41.6 96 96v508.8h-896zM448 188.8c0-3.2-3.2-6.4-6.4-6.4h-70.4c-3.2 0-6.4 3.2-6.4 6.4v150.4h-51.2c-3.2 0-6.4 3.2-6.4 6.4v54.4c0 3.2 3.2 6.4 6.4 6.4 38.4 0 60.8 19.2 67.2 57.6 0 3.2 3.2 6.4 6.4 6.4h54.4c3.2 0 6.4-3.2 6.4-6.4v-275.2zM707.2 259.2c3.2 0 6.4-3.2 6.4-6.4v-67.2c0-3.2-3.2-6.4-6.4-6.4h-204.8c-3.2 0-6.4 3.2-6.4 6.4-3.2 28.8 9.6 54.4 32 80 9.6 12.8 28.8 28.8 54.4 44.8 32 22.4 51.2 44.8 48 60.8 0 12.8-9.6 19.2-22.4 22.4-12.8 0-28.8-6.4-28.8-44.8 0-3.2 0-3.2-3.2-3.2 0 0-3.2-3.2-3.2-3.2h-64c-3.2 0-6.4 3.2-6.4 6.4 0 76.8 35.2 118.4 108.8 118.4 67.2-3.2 102.4-32 105.6-92.8 0-32-19.2-60.8-60.8-89.6-3.2-3.2-6.4-6.4-9.6-6.4-6.4-3.2-16-9.6-28.8-19.2 0 0 0 0 0 0h89.6z" />
</font>
</defs>
</svg>
